<svg width="48" height="59" viewBox="0 0 48 59" fill="none" xmlns="http://www.w3.org/2000/svg">
<path d="M4.57143 0C2.05089 0 0 2.05089 0 4.57143V10.2857C0 10.917 0.511607 11.4286 1.14286 11.4286H6.85714V52.5554C6.85714 55.6612 9.22143 58.5143 12.5714 58.5143H40C44.4112 58.5143 48 54.9254 48 50.5143C48 49.883 47.4884 49.3714 46.8571 49.3714H43.4286V5.71428C43.4286 2.56339 40.8652 0 37.7143 0H4.57143ZM4.57143 2.28571C5.82098 2.28571 6.85714 3.2933 6.85714 4.57143V9.14286H2.28571V4.57143C2.28571 3.31116 3.31116 2.28571 4.57143 2.28571ZM8.5317 2.28571H37.7143C39.6049 2.28571 41.1429 3.82366 41.1429 5.71428V49.3714H17.1429C16.5116 49.3714 16 49.883 16 50.5143V52.8C16 54.6906 14.4621 56.2286 12.5714 56.2286C10.5223 56.2286 9.14286 54.4554 9.14286 52.5554V4.57143C9.14286 3.74732 8.92321 2.96429 8.5317 2.28571ZM14.8571 7.54286C14.2259 7.54286 13.7143 8.05446 13.7143 8.68571C13.7143 9.31696 14.2259 9.82857 14.8571 9.82857H35.4286C36.0598 9.82857 36.5714 9.31696 36.5714 8.68571C36.5714 8.05446 36.0598 7.54286 35.4286 7.54286H14.8571ZM14.8571 14.4C14.2263 14.4 13.7143 14.9121 13.7143 15.5429C13.7143 16.1737 14.2263 16.6857 14.8571 16.6857C15.4879 16.6857 16 16.1737 16 15.5429C16 14.9121 15.4879 14.4 14.8571 14.4ZM19.4286 14.4C18.7973 14.4 18.2857 14.9116 18.2857 15.5429C18.2857 16.1741 18.7973 16.6857 19.4286 16.6857H35.4286C36.0598 16.6857 36.5714 16.1741 36.5714 15.5429C36.5714 14.9116 36.0598 14.4 35.4286 14.4H19.4286ZM14.8571 21.2571C14.2263 21.2571 13.7143 21.7692 13.7143 22.4C13.7143 23.0308 14.2263 23.5429 14.8571 23.5429C15.4879 23.5429 16 23.0308 16 22.4C16 21.7692 15.4879 21.2571 14.8571 21.2571ZM19.4286 21.2571C18.7973 21.2571 18.2857 21.7687 18.2857 22.4C18.2857 23.0312 18.7973 23.5429 19.4286 23.5429H35.4286C36.0598 23.5429 36.5714 23.0312 36.5714 22.4C36.5714 21.7687 36.0598 21.2571 35.4286 21.2571H19.4286ZM32 25.8286C28.2187 25.8286 25.1429 28.9045 25.1429 32.6857C25.1429 34.6643 25.9705 36.4937 27.4286 37.7929V45.2571C27.4286 45.6786 27.6607 46.0661 28.0321 46.2647C28.4036 46.4638 28.8549 46.442 29.2054 46.208L32 44.3451L34.7946 46.208C35.146 46.4424 35.5969 46.4634 35.9679 46.2647C36.3393 46.0661 36.5714 45.6786 36.5714 45.2571V37.7929C38.0299 36.4933 38.8571 34.6638 38.8571 32.6857C38.8571 28.9049 35.7812 25.8286 32 25.8286ZM14.8571 28.1143C14.2259 28.1143 13.7143 28.6259 13.7143 29.2571C13.7143 29.8884 14.2259 30.4 14.8571 30.4H21.7143C22.3455 30.4 22.8571 29.8884 22.8571 29.2571C22.8571 28.6259 22.3455 28.1143 21.7143 28.1143H14.8571ZM32 28.1143C34.5205 28.1143 36.5714 30.1652 36.5714 32.6857C36.5714 35.2656 34.4705 37.2571 32 37.2571C29.5286 37.2571 27.4286 35.267 27.4286 32.6857C27.4286 30.1652 29.4795 28.1143 32 28.1143ZM14.8571 34.9714C14.2259 34.9714 13.7143 35.483 13.7143 36.1143C13.7143 36.7455 14.2259 37.2571 14.8571 37.2571H21.7143C22.3455 37.2571 22.8571 36.7455 22.8571 36.1143C22.8571 35.483 22.3455 34.9714 21.7143 34.9714H14.8571ZM29.7143 39.1527C30.4406 39.4094 31.2098 39.5429 32 39.5429C32.7902 39.5429 33.5594 39.4094 34.2857 39.1527V43.1219L32.6339 42.0205C32.25 41.7647 31.75 41.7647 31.3661 42.0205L29.7143 43.1219V39.1527ZM14.8571 41.8286C14.2259 41.8286 13.7143 42.3402 13.7143 42.9714C13.7143 43.6027 14.2259 44.1143 14.8571 44.1143H21.7143C22.3455 44.1143 22.8571 43.6027 22.8571 42.9714C22.8571 42.3402 22.3455 41.8286 21.7143 41.8286H14.8571ZM18.2857 51.6455H45.5995C45.0687 54.2509 42.7594 56.2286 40 56.2286H17.1402C17.8589 55.2728 18.2857 54.0737 18.2857 52.7884V51.6455Z" fill="white"/>
</svg>
