<svg width="64" height="62" viewBox="0 0 64 62" fill="none" xmlns="http://www.w3.org/2000/svg">
<path d="M63.1975 52.8099L46.2643 35.8745C47.0582 34.8745 47.0311 33.4314 46.1085 32.5076L42.2541 28.6544L42.7858 28.1239C43.1771 27.7313 43.1795 27.0964 42.7882 26.7025L40.8117 24.7063L44.5948 20.9232C44.8975 20.6192 44.9763 20.1553 44.7867 19.7688C44.5997 19.3837 44.2009 19.1573 43.7579 19.2101L34.7298 20.3153C34.507 20.3425 34.2991 20.4433 34.1403 20.6033L32.5656 22.1779L25.276 14.8893L26.1681 13.997C26.2813 13.8851 26.365 13.7471 26.4142 13.5958L30.1344 2.13222C30.2784 1.68925 30.1 1.20423 29.7024 0.960672C29.3038 0.715704 28.7905 0.777297 28.4631 1.10833L21.9037 7.66651L19.9297 5.69256C19.7414 5.503 19.4842 5.39725 19.2172 5.39725C18.9501 5.39725 18.6929 5.50314 18.5046 5.69256L3.82899 20.3697C3.66038 20.5371 3.55702 20.7598 3.53733 20.9973L2.34258 35.03C1.17174 36.3435 0.507568 38.0038 0.507568 39.7772C0.507568 41.6921 1.2533 43.4938 2.60837 44.8476C3.96216 46.2014 5.76258 46.9472 7.67748 46.9472C9.4433 46.9472 11.0944 46.2886 12.4046 45.1297L24.7873 44.7319C25.0433 44.7246 25.287 44.6187 25.4679 44.439L30.3291 39.5754L34.6831 43.932C35.654 44.898 37.2076 44.905 38.2065 43.9849L55.1145 60.8929C55.3114 61.0898 55.5699 61.1882 55.8283 61.1882C56.0868 61.1882 56.3453 61.0898 56.5421 60.8929L63.1975 54.2376C63.5912 53.8437 63.5912 53.2038 63.1975 52.8099ZM25.9088 28.8347L18.6204 21.5462L23.8506 16.3159L31.1403 23.6033L25.9088 28.8347ZM24.4836 30.2596L14.8358 39.907C14.8366 39.863 14.8485 39.8213 14.8485 39.7772C14.8485 37.8624 14.1028 36.0607 12.7477 34.7069C11.3437 33.3022 9.39929 32.6418 7.47385 32.6935L17.1951 22.9712L24.4836 30.2596ZM5.51508 21.5351L19.2173 7.83161L21.1913 9.80556C21.3796 9.99512 21.6368 10.1009 21.9038 10.1009C22.1709 10.1009 22.4281 9.99498 22.6164 9.80556L26.9212 5.50075L24.5719 12.7432L23.1384 14.1769H23.1382L22.4238 14.8914L4.55996 32.7563L5.51508 21.5351ZM4.03332 43.42C3.05991 42.4477 2.52329 41.1531 2.52329 39.7772C2.52329 38.4014 3.05991 37.1068 4.03332 36.1345C5.00672 35.1598 6.30146 34.6232 7.67733 34.6232C9.05448 34.6232 10.3491 35.1598 11.3226 36.1345C12.296 37.1068 12.8326 38.4014 12.8326 39.7772C12.8326 41.1531 12.296 42.4479 11.3226 43.42C9.37679 45.3693 5.9814 45.3693 4.03332 43.42ZM36.1106 42.5044L31.0415 37.4365C30.6649 37.0625 29.993 37.0625 29.6164 37.4365L24.3245 42.7308L14.5507 43.0434L26.6206 30.9741C26.6211 30.9737 26.6218 30.9736 26.6222 30.973C26.6226 30.9726 26.6228 30.9719 26.6233 30.9715L33.2785 24.3167C33.2787 24.3165 33.2787 24.3165 33.2788 24.3164C33.279 24.3162 33.279 24.3162 33.2791 24.3161L35.3204 22.2748L41.0995 21.5672L38.6752 23.9903C38.2838 24.3829 38.2814 25.0178 38.6726 25.4117L40.6491 27.4079L40.115 27.942C39.7213 28.3357 39.7213 28.9733 40.115 29.3671L44.6808 33.934C44.8876 34.1407 44.8876 34.4755 44.6808 34.6823L36.8587 42.5044C36.6815 42.6816 36.2878 42.6816 36.1106 42.5044ZM55.8282 58.754L39.6474 42.5709L44.8766 37.3418L61.0586 53.5238L55.8282 58.754Z" fill="white"/>
<path d="M22.6818 18.92L21.2924 20.3094C20.8986 20.7032 20.8986 21.3407 21.2924 21.7345C21.4893 21.9314 21.7465 22.0298 22.0049 22.0298C22.2634 22.0298 22.5206 21.9314 22.7175 21.7345L24.1069 20.3451C24.5006 19.9514 24.5006 19.3138 24.1069 18.92C23.713 18.5261 23.0755 18.5261 22.6818 18.92Z" fill="white"/>
<path d="M27.5216 22.4015C27.1279 22.0077 26.4903 22.0077 26.0966 22.4015L24.7072 23.7909C24.3134 24.1846 24.3134 24.8222 24.7072 25.216C24.9041 25.4128 25.1613 25.5113 25.4197 25.5113C25.6782 25.5113 25.9354 25.4128 26.1323 25.216L27.5216 23.8266C27.9154 23.4328 27.9154 22.7954 27.5216 22.4015Z" fill="white"/>
<path d="M43.4896 42.94C43.0959 43.3338 43.0959 43.9738 43.4896 44.3677C43.6865 44.5645 43.945 44.663 44.2035 44.663C44.4619 44.663 44.7204 44.5645 44.9173 44.3677L46.3079 42.977C46.7017 42.5833 46.7017 41.9433 46.3079 41.5494C45.9142 41.1555 45.2742 41.1557 44.8803 41.5494L43.4896 42.94Z" fill="white"/>
<path d="M47.6197 48.1457C47.8782 48.1457 48.1367 48.0473 48.3335 47.8504L49.7242 46.4597C50.1179 46.066 50.1179 45.426 49.7242 45.0321C49.3304 44.6384 48.6904 44.6384 48.2965 45.0321L46.9059 46.4228C46.5122 46.8165 46.5122 47.4565 46.9059 47.8504C47.1028 48.0473 47.3612 48.1457 47.6197 48.1457Z" fill="white"/>
<path d="M51.0335 51.626C51.292 51.626 51.5505 51.5276 51.7473 51.3307L53.138 49.9401C53.5317 49.5463 53.5317 48.9063 53.138 48.5124C52.7442 48.1187 52.1043 48.1187 51.7104 48.5124L50.3197 49.9031C49.926 50.2968 49.926 50.9368 50.3197 51.3307C50.5166 51.5276 50.7751 51.626 51.0335 51.626Z" fill="white"/>
<path d="M54.4498 55.1089C54.7083 55.1089 54.9667 55.0105 55.1636 54.8136L56.5543 53.4229C56.948 53.0292 56.948 52.3892 56.5543 51.9953C56.1605 51.6014 55.5205 51.6016 55.1266 51.9953L53.736 53.386C53.3422 53.7797 53.3422 54.4197 53.736 54.8136C53.9329 55.0105 54.1913 55.1089 54.4498 55.1089Z" fill="white"/>
<path d="M10.5877 36.8704C10.5864 36.8679 10.5864 36.8679 10.5864 36.8679C9.03574 35.3221 6.32463 35.3172 4.76904 36.8679C3.16423 38.4727 3.16423 41.0841 4.76904 42.6889C5.57145 43.4888 6.6236 43.89 7.67716 43.89C8.73073 43.89 9.78401 43.4888 10.5864 42.6889C12.1912 41.0842 12.1912 38.4728 10.5877 36.8704ZM9.16132 41.2614C8.34415 42.0786 7.0113 42.0786 6.19413 41.2614C5.37569 40.4442 5.3757 39.1127 6.1954 38.2931C6.59041 37.8993 7.1172 37.6802 7.67716 37.6802C8.2384 37.6802 8.76504 37.8993 9.16005 38.2931C9.16132 38.2956 9.16132 38.2956 9.16132 38.2956C9.97976 39.1127 9.97976 40.4442 9.16132 41.2614Z" fill="white"/>
<path d="M40.5632 34.6651C40.5632 33.7224 40.199 32.8388 39.5368 32.1767L36.0909 28.7296C34.7174 27.3587 32.4888 27.3587 31.1166 28.7296C29.7443 30.1006 29.7443 32.3317 31.1166 33.7027L34.5624 37.1509C35.2491 37.8352 36.15 38.1774 37.0484 38.1774C37.9493 38.1774 38.8501 37.8352 39.5368 37.1509C40.199 36.4889 40.5632 35.6053 40.5632 34.6651ZM38.1117 35.7234H38.1093C37.5284 36.3044 36.571 36.3093 35.9901 35.7234L32.5418 32.2776C31.9572 31.6917 31.9572 30.7405 32.5418 30.1547C32.8347 29.863 33.2186 29.7167 33.6038 29.7167C33.9877 29.7167 34.3718 29.863 34.6634 30.1547L38.1117 33.6018C38.3922 33.8849 38.5473 34.2615 38.5473 34.6651C38.5473 35.0663 38.3924 35.4429 38.1117 35.7234Z" fill="white"/>
</svg>
