<svg width="56" height="62" viewBox="0 0 56 62" fill="none" xmlns="http://www.w3.org/2000/svg">
<path d="M52.8429 48.9825C52.1631 45.0171 49.3009 41.7632 45.3739 40.4916L36.6568 37.6688V36.4099H34.6305V38.2573L33.1179 44.1332L29.0257 39.3626H26.0501L21.958 44.1332L20.4464 38.2573V36.4099H18.4201V37.6688L9.70294 40.4916C5.77698 41.7632 2.91483 45.0171 2.234 48.9825L0 62H55.0759L52.8429 48.9825ZM18.7159 39.6481L20.9611 48.3713L26.9994 41.3311H28.0764L34.1158 48.3713L36.361 39.6481L43.6729 42.0151L42.7306 51.1734L43.6425 60.0315H32.6113C32.6174 59.3406 32.6285 58.6762 32.6457 58.0631H41.7225V56.0946H32.7288C32.7683 55.3712 32.8139 54.7167 32.8646 54.1261H41.7225V52.1577H33.0733C33.3154 50.2994 33.5616 49.5258 33.5667 49.5121L32.6042 49.205L31.6427 48.894C31.6012 49.016 30.6579 51.8841 30.585 60.0315H28.5516V44.2838H26.5253V60.0315H24.4919C24.4189 51.8841 23.4757 49.016 23.4342 48.894L21.5102 49.5121C21.5153 49.5268 21.7615 50.3004 22.0036 52.1577H13.3543V54.1261H22.2113C22.262 54.7167 22.3075 55.3712 22.3471 56.0946H13.3543V58.0631H22.4311C22.4494 58.6762 22.4595 59.3406 22.4656 60.0315H11.4344L12.3462 51.1734L11.404 42.0151L18.7159 39.6481ZM4.23294 49.3063C4.73546 46.3783 6.69996 43.9354 9.43952 42.7199L10.3098 51.1734L9.39798 60.0315H2.39306L4.23294 49.3063ZM45.6789 60.0315L44.7671 51.1734L45.6374 42.7199C48.3769 43.9354 50.3424 46.3773 50.8439 49.3063L52.6838 60.0315H45.6789Z" fill="white"/>
<path d="M11.4709 19.5406C10.7597 20.3881 10.3149 21.455 10.3149 22.6311C10.3149 25.1567 12.2906 27.2196 14.8153 27.4972C15.332 29.2245 16.2864 30.8081 17.6319 32.1152L21.5832 35.9527C22.5396 36.8818 23.8121 37.3946 25.1647 37.3946H29.9133C31.2659 37.3946 32.5384 36.8818 33.4948 35.9527L37.4461 32.1152C38.7915 30.8081 39.7459 29.2235 40.2626 27.4972C42.7864 27.2196 44.762 25.1567 44.762 22.6311C44.762 21.455 44.3173 20.3881 43.606 19.5406C44.8563 19.1745 45.7752 18.0584 45.7752 16.7257C45.7752 15.0978 44.4115 13.773 42.7357 13.773H42.5919C41.7844 7.96312 37.4197 3.102 31.5911 1.53215V0.978027H23.4859V1.53215C17.6572 3.102 13.2915 7.9641 12.4851 13.773H12.3412C10.6655 13.773 9.30176 15.0978 9.30176 16.7257C9.30176 18.0584 10.2207 19.1745 11.4709 19.5406ZM12.3412 22.6311C12.3412 21.3496 13.1912 20.267 14.3675 19.8595V24.4598C14.3675 24.7817 14.3868 25.1006 14.4151 25.4175C13.2145 25.0228 12.3412 23.9293 12.3412 22.6311ZM36.0125 30.7235L32.0612 34.561C31.4958 35.1112 30.7127 35.4261 29.9123 35.4261H25.1636C24.3633 35.4261 23.5811 35.1112 23.0148 34.561L19.0635 30.7235C17.3411 29.0503 16.3928 26.8259 16.3928 24.4598V19.6784H38.6821V24.4598C38.6831 26.8259 37.7348 29.0503 36.0125 30.7235ZM40.6618 25.4165C40.6902 25.1006 40.7094 24.7817 40.7094 24.4598V19.8595C41.8857 20.267 42.7357 21.3496 42.7357 22.6311C42.7357 23.9293 41.8624 25.0228 40.6618 25.4165ZM23.4859 3.5823V11.8046H25.5122V2.94649H29.5648V11.8046H31.5911V3.5823C36.287 5.0616 39.7915 9.03396 40.5534 13.773H14.5235C15.2854 9.03396 18.7899 5.0616 23.4859 3.5823ZM12.3412 15.7415H42.7357C43.294 15.7415 43.7489 16.1834 43.7489 16.7257C43.7489 17.268 43.294 17.71 42.7357 17.71H12.3412C11.783 17.71 11.3281 17.268 11.3281 16.7257C11.3281 16.1834 11.783 15.7415 12.3412 15.7415Z" fill="white"/>
<path d="M35.6437 9.83616H33.6174V11.8045H35.6437V9.83616Z" fill="white"/>
<path d="M21.4596 9.83616H19.4333V11.8045H21.4596V9.83616Z" fill="white"/>
</svg>
