<svg width="58" height="72" viewBox="0 0 58 72" fill="none" xmlns="http://www.w3.org/2000/svg">
<g clip-path="url(#clip0)">
<path d="M50.75 26.55H47.125V21.6C47.125 21.1226 46.934 20.6648 46.5941 20.3272C46.2542 19.9896 45.7932 19.8 45.3125 19.8H34.4375C33.9568 19.8 33.4958 19.9896 33.1559 20.3272C32.816 20.6648 32.625 21.1226 32.625 21.6V26.55H30.8125V21.6C30.8125 21.1226 30.6215 20.6648 30.2816 20.3272C29.9417 19.9896 29.4807 19.8 29 19.8H25.8281V15.9503C26.1029 15.7937 26.3314 15.5679 26.4904 15.2958C26.6495 15.0236 26.7337 14.7147 26.7344 14.4V11.7C27.2151 11.7 27.6761 11.5104 28.016 11.1728C28.3559 10.8352 28.5469 10.3774 28.5469 9.9V5.4C28.5469 4.92261 28.3559 4.46477 28.016 4.12721C27.6761 3.78964 27.2151 3.6 26.7344 3.6H19.4844C19.0466 3.60139 18.6244 3.7614 18.297 4.05H4.53125C4.05054 4.05 3.58953 4.23964 3.24962 4.57721C2.90971 4.91477 2.71875 5.37261 2.71875 5.85V20.3136C2.33041 20.4125 1.98615 20.6367 1.74009 20.951C1.49402 21.2653 1.3601 21.6519 1.35937 22.05V26.55H0.90625C0.665897 26.55 0.435389 26.6448 0.265434 26.8136C0.0954796 26.9824 0 27.2113 0 27.45C0 27.6887 0.0954796 27.9176 0.265434 28.0864C0.435389 28.2552 0.665897 28.35 0.90625 28.35H50.75C52.1921 28.35 53.5752 28.9189 54.5949 29.9316C55.6146 30.9443 56.1875 32.3178 56.1875 33.75C56.1875 35.1822 55.6146 36.5557 54.5949 37.5684C53.5752 38.5811 52.1921 39.15 50.75 39.15H0.90625C0.665897 39.15 0.435389 39.2448 0.265434 39.4136C0.0954796 39.5824 0 39.8113 0 40.05C0 40.2887 0.0954796 40.5176 0.265434 40.6864C0.435389 40.8552 0.665897 40.95 0.90625 40.95H3.17187V53.1C3.17187 53.3387 3.26735 53.5676 3.43731 53.7364C3.60726 53.9052 3.83777 54 4.07812 54C4.31848 54 4.54899 53.9052 4.71894 53.7364C4.8889 53.5676 4.98437 53.3387 4.98437 53.1V49.5H50.2969V53.1C50.2969 53.3387 50.3923 53.5676 50.5623 53.7364C50.7323 53.9052 50.9628 54 51.2031 54C51.4435 54 51.674 53.9052 51.8439 53.7364C52.0139 53.5676 52.1094 53.3387 52.1094 53.1V40.8187C53.8819 40.4831 55.4646 39.5029 56.548 38.0699C57.6315 36.6369 58.1377 34.854 57.9678 33.07C57.7978 31.286 56.9639 29.6291 55.629 28.4233C54.2942 27.2175 52.5544 26.5495 50.75 26.55ZM19.4844 5.4H26.7344V9.9H19.4844V5.4ZM21.2969 14.4V11.7H24.9219V14.4H21.2969ZM24.0156 16.2V19.8H22.2031V16.2H24.0156ZM4.53125 5.85H17.6719V9.45H8.15625V20.25H4.53125V5.85ZM9.51562 26.55H3.17187V22.05H9.51562V26.55ZM16.3125 21.6V26.55H11.3281V22.05C11.3274 21.6519 11.1935 21.2653 10.9474 20.951C10.7014 20.6367 10.3571 20.4125 9.96875 20.3136V11.25H18.297C18.6244 11.5386 19.0466 11.6986 19.4844 11.7V14.4C19.4851 14.7147 19.5692 15.0236 19.7283 15.2958C19.8874 15.5679 20.1158 15.7937 20.3906 15.9503V19.8H18.125C17.6443 19.8 17.1833 19.9896 16.8434 20.3272C16.5035 20.6648 16.3125 21.1226 16.3125 21.6ZM29 26.55H18.125V21.6H29V26.55ZM45.3125 26.55H34.4375V21.6H45.3125V26.55ZM50.2969 47.7H4.98437V40.95H50.2969V47.7Z" fill="white"/>
<path d="M54.375 33.75C54.375 33.038 54.1624 32.342 53.7641 31.7499C53.3658 31.1579 52.7996 30.6965 52.1372 30.424C51.4749 30.1516 50.746 30.0803 50.0428 30.2192C49.3396 30.3581 48.6937 30.7009 48.1867 31.2044C47.6798 31.7079 47.3345 32.3493 47.1947 33.0477C47.0548 33.746 47.1266 34.4698 47.4009 35.1277C47.6753 35.7855 48.1399 36.3477 48.7361 36.7433C49.3322 37.1389 50.033 37.35 50.75 37.35C51.7111 37.3489 52.6325 36.9693 53.3121 36.2944C53.9917 35.6195 54.3739 34.7045 54.375 33.75ZM48.9375 33.75C48.9375 33.394 49.0438 33.046 49.243 32.75C49.4421 32.454 49.7252 32.2233 50.0564 32.087C50.3876 31.9508 50.752 31.9151 51.1036 31.9846C51.4552 32.054 51.7782 32.2255 52.0316 32.4772C52.2851 32.7289 52.4577 33.0497 52.5277 33.3988C52.5976 33.748 52.5617 34.1099 52.4245 34.4388C52.2874 34.7677 52.055 35.0489 51.757 35.2466C51.4589 35.4444 51.1085 35.55 50.75 35.55C50.2693 35.55 49.8083 35.3604 49.4684 35.0228C49.1285 34.6852 48.9375 34.2274 48.9375 33.75Z" fill="white"/>
<path d="M45.3125 33.75C45.3125 33.127 45.1265 32.518 44.7779 32C44.4294 31.4819 43.934 31.0782 43.3545 30.8398C42.7749 30.6014 42.1371 30.539 41.5218 30.6605C40.9065 30.7821 40.3414 31.0821 39.8978 31.5226C39.4542 31.9631 39.1521 32.5244 39.0297 33.1355C38.9073 33.7465 38.9701 34.3799 39.2102 34.9555C39.4503 35.531 39.8568 36.023 40.3784 36.3691C40.9 36.7153 41.5133 36.9 42.1406 36.9C42.9816 36.8991 43.7878 36.5669 44.3824 35.9763C44.9771 35.3858 45.3115 34.5851 45.3125 33.75ZM40.7813 33.75C40.7813 33.483 40.861 33.222 41.0103 33C41.1597 32.778 41.372 32.6049 41.6204 32.5028C41.8688 32.4006 42.1421 32.3738 42.4058 32.4259C42.6695 32.478 42.9117 32.6066 43.1018 32.7954C43.292 32.9842 43.4214 33.2248 43.4739 33.4866C43.5263 33.7485 43.4994 34.0199 43.3965 34.2666C43.2936 34.5133 43.1194 34.7241 42.8959 34.8725C42.6723 35.0208 42.4095 35.1 42.1406 35.1C41.7801 35.1 41.4343 34.9578 41.1794 34.7046C40.9245 34.4514 40.7813 34.108 40.7813 33.75Z" fill="white"/>
<path d="M37.1562 33.75C37.1562 33.127 36.9702 32.518 36.6217 32C36.2732 31.4819 35.7778 31.0782 35.1982 30.8398C34.6186 30.6014 33.9809 30.539 33.3656 30.6605C32.7503 30.7821 32.1851 31.0821 31.7415 31.5226C31.2979 31.9631 30.9958 32.5244 30.8734 33.1355C30.7511 33.7465 30.8139 34.3799 31.0539 34.9555C31.294 35.531 31.7006 36.023 32.2222 36.3691C32.7438 36.7153 33.357 36.9 33.9844 36.9C34.8253 36.8991 35.6315 36.5669 36.2262 35.9763C36.8208 35.3858 37.1553 34.5851 37.1562 33.75ZM32.625 33.75C32.625 33.483 32.7047 33.222 32.8541 33C33.0035 32.778 33.2158 32.6049 33.4642 32.5028C33.7126 32.4006 33.9859 32.3738 34.2496 32.4259C34.5133 32.478 34.7555 32.6066 34.9456 32.7954C35.1357 32.9842 35.2652 33.2248 35.3176 33.4866C35.3701 33.7485 35.3432 34.0199 35.2403 34.2666C35.1374 34.5133 34.9632 34.7241 34.7396 34.8725C34.5161 35.0208 34.2532 35.1 33.9844 35.1C33.6238 35.1 33.2781 34.9578 33.0232 34.7046C32.7682 34.4514 32.625 34.108 32.625 33.75Z" fill="white"/>
<path d="M29 33.75C29 33.127 28.814 32.518 28.4654 32C28.1169 31.4819 27.6215 31.0782 27.042 30.8398C26.4624 30.6014 25.8246 30.539 25.2093 30.6605C24.594 30.7821 24.0289 31.0821 23.5853 31.5226C23.1417 31.9631 22.8396 32.5244 22.7172 33.1355C22.5948 33.7465 22.6576 34.3799 22.8977 34.9555C23.1378 35.531 23.5443 36.023 24.0659 36.3691C24.5875 36.7153 25.2008 36.9 25.8281 36.9C26.6691 36.8991 27.4753 36.5669 28.0699 35.9763C28.6646 35.3858 28.9991 34.5851 29 33.75ZM24.4688 33.75C24.4688 33.483 24.5485 33.222 24.6978 33C24.8472 32.778 25.0595 32.6049 25.3079 32.5028C25.5563 32.4006 25.8296 32.3738 26.0933 32.4259C26.357 32.478 26.5992 32.6066 26.7894 32.7954C26.9795 32.9842 27.1089 33.2248 27.1614 33.4866C27.2138 33.7485 27.1869 34.0199 27.084 34.2666C26.9811 34.5133 26.8069 34.7241 26.5834 34.8725C26.3598 35.0208 26.097 35.1 25.8281 35.1C25.4676 35.1 25.1218 34.9578 24.8669 34.7046C24.612 34.4514 24.4688 34.108 24.4688 33.75Z" fill="white"/>
<path d="M20.8438 33.75C20.8438 33.127 20.6577 32.518 20.3092 32C19.9607 31.4819 19.4653 31.0782 18.8857 30.8398C18.3061 30.6014 17.6684 30.539 17.0531 30.6605C16.4378 30.7821 15.8726 31.0821 15.429 31.5226C14.9854 31.9631 14.6833 32.5244 14.5609 33.1355C14.4386 33.7465 14.5014 34.3799 14.7414 34.9555C14.9815 35.531 15.3881 36.023 15.9097 36.3691C16.4313 36.7153 17.0445 36.9 17.6719 36.9C18.5128 36.8991 19.319 36.5669 19.9137 35.9763C20.5083 35.3858 20.8428 34.5851 20.8438 33.75ZM16.3125 33.75C16.3125 33.483 16.3922 33.222 16.5416 33C16.691 32.778 16.9033 32.6049 17.1517 32.5028C17.4001 32.4006 17.6734 32.3738 17.9371 32.4259C18.2008 32.478 18.443 32.6066 18.6331 32.7954C18.8232 32.9842 18.9527 33.2248 19.0051 33.4866C19.0576 33.7485 19.0307 34.0199 18.9278 34.2666C18.8249 34.5133 18.6507 34.7241 18.4271 34.8725C18.2036 35.0208 17.9407 35.1 17.6719 35.1C17.3113 35.1 16.9656 34.9578 16.7107 34.7046C16.4557 34.4514 16.3125 34.108 16.3125 33.75Z" fill="white"/>
<path d="M12.6875 33.75C12.6875 33.127 12.5015 32.518 12.1529 32C11.8044 31.4819 11.309 31.0782 10.7294 30.8398C10.1499 30.6014 9.51211 30.539 8.89682 30.6605C8.28154 30.7821 7.71637 31.0821 7.27277 31.5226C6.82918 31.9631 6.52709 32.5244 6.4047 33.1355C6.28231 33.7465 6.34512 34.3799 6.5852 34.9555C6.82527 35.531 7.23181 36.023 7.75343 36.3691C8.27504 36.7153 8.88829 36.9 9.51563 36.9C10.3566 36.8991 11.1628 36.5669 11.7574 35.9763C12.3521 35.3858 12.6865 34.5851 12.6875 33.75ZM8.15625 33.75C8.15625 33.483 8.23598 33.222 8.38535 33C8.53472 32.778 8.74702 32.6049 8.99542 32.5028C9.24381 32.4006 9.51713 32.3738 9.78083 32.4259C10.0445 32.478 10.2867 32.6066 10.4768 32.7954C10.667 32.9842 10.7964 33.2248 10.8489 33.4866C10.9013 33.7485 10.8744 34.0199 10.7715 34.2666C10.6686 34.5133 10.4944 34.7241 10.2709 34.8725C10.0473 35.0208 9.78449 35.1 9.51563 35.1C9.1551 35.1 8.80933 34.9578 8.5544 34.7046C8.29947 34.4514 8.15625 34.108 8.15625 33.75Z" fill="white"/>
</g>
<defs>
<clipPath id="clip0">
<rect width="58" height="72" fill="white"/>
</clipPath>
</defs>
</svg>
