<svg width="43" height="45" viewBox="0 0 43 45" fill="none" xmlns="http://www.w3.org/2000/svg">
<path fill-rule="evenodd" clip-rule="evenodd" d="M37 35L43 45V10L37 0H6L0 10V45L6 35H37ZM2 37.7794L4.86762 33H38.1324L41 37.7794V10.554L35.8676 2H7.13238L2 10.554V37.7794Z" fill="#333333"/>
<path fill-rule="evenodd" clip-rule="evenodd" d="M20.4839 35L20.4839 -1.12921e-07L22.4839 0L22.4839 35L20.4839 35Z" fill="#333333"/>
<path fill-rule="evenodd" clip-rule="evenodd" d="M5 34L5 2L7 2L7 34L5 34Z" fill="#333333"/>
<path fill-rule="evenodd" clip-rule="evenodd" d="M35.9677 35L36 2L38 2.00195L37.9677 35.002L35.9677 35Z" fill="#333333"/>
</svg>
