<svg width="650" height="475" viewBox="0 0 650 475" fill="none" xmlns="http://www.w3.org/2000/svg">
<rect width="650" height="475" rx="10" fill="white"/>
<g filter="url(#filter0_d_307_7)">
<path d="M71 45H495.471L565 90V414L492.471 367H71V45Z" fill="white"/>
<path d="M564.5 90.272V413.08L492.742 366.58L492.618 366.5H492.471H71.5V45.5H495.323L564.5 90.272Z" stroke="#B7B7B7"/>
</g>
<path d="M188.416 60.5H280.652V257.5H188.416V60.5Z" fill="#E5F6FD" stroke="#B7B7B7"/>
<path d="M187.916 60H281.152L187.916 258V60Z" fill="url(#paint0_linear_307_7)"/>
<path d="M85.5 60.5H177.736V257.5H85.5V60.5Z" fill="#E5F6FD" stroke="#B7B7B7"/>
<path d="M85 60H178.236L85 258V60Z" fill="url(#paint1_linear_307_7)"/>
<path d="M188.416 270.5H280.652V351.908H188.416V270.5Z" fill="#E5F6FD" stroke="#B7B7B7"/>
<path d="M187.916 270H281.152L187.916 352.408V270Z" fill="url(#paint2_linear_307_7)"/>
<path d="M85.5001 270.5H177.736V351.908H85.5001V270.5Z" fill="#E5F6FD" stroke="#B7B7B7"/>
<path d="M85.0001 270H178.236L85.0001 352.408V270Z" fill="url(#paint3_linear_307_7)"/>
<path d="M291.393 60.5H383.629V257.5H291.393V60.5Z" fill="#E5F6FD" stroke="#B7B7B7"/>
<path d="M290.893 60H384.129L290.893 258V60Z" fill="url(#paint4_linear_307_7)"/>
<path d="M291.393 270.5H383.629V351.908H291.393V270.5Z" fill="#E5F6FD" stroke="#B7B7B7"/>
<path d="M290.893 270H384.129L290.893 352.408V270Z" fill="url(#paint5_linear_307_7)"/>
<path d="M394.37 60.5H486.607V257.5H394.37V60.5Z" fill="#E5F6FD" stroke="#B7B7B7"/>
<path d="M393.87 60H487.107L393.87 258V60Z" fill="url(#paint6_linear_307_7)"/>
<path d="M394.371 270.5H486.607V351.908H394.371V270.5Z" fill="#E5F6FD" stroke="#B7B7B7"/>
<path d="M393.871 270H487.107L393.871 352.408V270Z" fill="url(#paint7_linear_307_7)"/>
<path d="M497.5 257.907V65.1292L521.5 81.4492V274.227L497.5 257.907Z" fill="#E5F6FD" stroke="#B7B7B7"/>
<path d="M530.5 281.722V85.9446L554.5 102.265V298.042L530.5 281.722Z" fill="#E5F6FD" stroke="#B7B7B7"/>
<line x1="565" y1="90.5" x2="630" y2="90.5" stroke="#D0D0D0"/>
<line x1="618.5" y1="94" x2="618.5" y2="218" stroke="#D0D0D0"/>
<line x1="618.5" y1="284" x2="618.5" y2="408" stroke="#D0D0D0"/>
<line x1="565" y1="413.5" x2="630" y2="413.5" stroke="#D0D0D0"/>
<path d="M591.19 258H595.214C595.433 258 595.665 257.992 595.91 257.976C596.161 257.96 596.393 257.923 596.606 257.864C597.081 257.725 597.459 257.469 597.742 257.096C598.025 256.723 598.166 256.24 598.166 255.648C598.166 254.795 597.851 254.179 597.222 253.8C597.03 253.683 596.846 253.608 596.67 253.576C596.867 253.491 597.049 253.357 597.214 253.176C597.385 253 597.515 252.792 597.606 252.552C597.702 252.307 597.75 252.029 597.75 251.72C597.75 251.165 597.601 250.693 597.302 250.304C597.009 249.909 596.619 249.645 596.134 249.512C595.91 249.453 595.667 249.413 595.406 249.392C595.15 249.371 594.931 249.36 594.75 249.36H591.19V258ZM592.374 253.176V250.368H594.63C594.689 250.368 594.827 250.373 595.046 250.384C595.27 250.395 595.478 250.435 595.67 250.504C595.953 250.595 596.163 250.757 596.302 250.992C596.446 251.221 596.518 251.485 596.518 251.784C596.518 252.061 596.451 252.317 596.318 252.552C596.19 252.787 595.987 252.952 595.71 253.048C595.577 253.096 595.425 253.131 595.254 253.152C595.083 253.168 594.929 253.176 594.79 253.176H592.374ZM592.374 257V254.184H594.99C595.097 254.184 595.217 254.187 595.35 254.192C595.489 254.197 595.617 254.213 595.734 254.24C596.097 254.293 596.39 254.443 596.614 254.688C596.838 254.928 596.95 255.237 596.95 255.616C596.95 255.904 596.875 256.171 596.726 256.416C596.582 256.656 596.353 256.816 596.038 256.896C595.905 256.933 595.753 256.96 595.582 256.976C595.411 256.992 595.27 257 595.158 257H592.374ZM599.769 258H602.545C602.79 258 603.041 257.995 603.297 257.984C603.558 257.968 603.795 257.936 604.009 257.888C604.595 257.76 605.078 257.483 605.457 257.056C605.841 256.629 606.033 256.045 606.033 255.304C606.033 254.493 605.822 253.888 605.401 253.488C604.985 253.088 604.459 252.824 603.825 252.696C603.633 252.664 603.417 252.643 603.177 252.632C602.937 252.621 602.691 252.616 602.441 252.616H600.937V249.36H599.753L599.769 258ZM607.065 258H608.241V249.36H607.065V258ZM600.937 256.992V253.624H602.497C602.667 253.624 602.849 253.629 603.041 253.64C603.233 253.651 603.414 253.675 603.585 253.712C603.958 253.792 604.257 253.957 604.481 254.208C604.705 254.453 604.817 254.819 604.817 255.304C604.817 255.8 604.699 256.168 604.465 256.408C604.23 256.648 603.971 256.808 603.689 256.888C603.518 256.936 603.321 256.965 603.097 256.976C602.873 256.987 602.673 256.992 602.497 256.992H600.937ZM614.063 258.24C614.922 258.24 615.658 258.04 616.271 257.64C616.89 257.235 617.362 256.648 617.687 255.88L616.503 255.528C616.066 256.584 615.253 257.112 614.063 257.112C613.135 257.112 612.437 256.8 611.967 256.176C611.498 255.547 611.258 254.715 611.247 253.68C611.258 252.672 611.49 251.848 611.943 251.208C612.402 250.568 613.109 250.248 614.063 250.248C614.629 250.248 615.13 250.392 615.567 250.68C616.01 250.963 616.333 251.363 616.535 251.88L617.687 251.512C617.447 250.771 617.002 250.187 616.351 249.76C615.706 249.333 614.946 249.12 614.071 249.12C613.213 249.12 612.482 249.312 611.879 249.696C611.277 250.075 610.815 250.608 610.495 251.296C610.175 251.979 610.01 252.773 609.999 253.68C610.01 254.565 610.17 255.352 610.479 256.04C610.794 256.728 611.253 257.267 611.855 257.656C612.458 258.045 613.194 258.24 614.063 258.24ZM622.712 258.24C623.566 258.24 624.296 258.048 624.904 257.664C625.518 257.28 625.987 256.747 626.312 256.064C626.643 255.376 626.808 254.579 626.808 253.672C626.808 252.781 626.646 251.995 626.32 251.312C626 250.624 625.534 250.088 624.92 249.704C624.312 249.315 623.576 249.12 622.712 249.12C621.87 249.12 621.142 249.312 620.528 249.696C619.92 250.075 619.451 250.605 619.12 251.288C618.79 251.971 618.624 252.765 618.624 253.672C618.624 254.563 618.784 255.352 619.104 256.04C619.43 256.728 619.896 257.267 620.504 257.656C621.118 258.045 621.854 258.24 622.712 258.24ZM622.712 257.112C621.779 257.112 621.072 256.8 620.592 256.176C620.112 255.547 619.872 254.712 619.872 253.672C619.872 252.664 620.104 251.843 620.568 251.208C621.032 250.568 621.747 250.248 622.712 250.248C623.667 250.248 624.379 250.56 624.848 251.184C625.323 251.803 625.56 252.632 625.56 253.672C625.56 254.691 625.326 255.52 624.856 256.16C624.387 256.795 623.672 257.112 622.712 257.112ZM630.698 258H631.874V250.448H634.938V249.36H627.634V250.448H630.698V258ZM638.623 258.24C640.133 258.24 641.229 257.683 641.911 256.568V258H642.959V252.632C642.959 252.312 642.943 251.997 642.911 251.688C642.879 251.379 642.81 251.099 642.703 250.848C642.474 250.288 642.082 249.861 641.527 249.568C640.978 249.269 640.309 249.12 639.519 249.12C638.57 249.12 637.797 249.333 637.199 249.76C636.602 250.187 636.202 250.787 635.999 251.56L637.143 251.896C637.309 251.32 637.594 250.899 637.999 250.632C638.41 250.365 638.911 250.232 639.503 250.232C640.325 250.232 640.911 250.424 641.263 250.808C641.615 251.187 641.797 251.765 641.807 252.544C641.423 252.597 640.999 252.653 640.535 252.712C640.077 252.771 639.615 252.837 639.151 252.912C638.687 252.987 638.261 253.072 637.871 253.168C637.226 253.339 636.698 253.624 636.287 254.024C635.877 254.419 635.671 254.971 635.671 255.68C635.671 256.139 635.781 256.563 635.999 256.952C636.218 257.341 636.546 257.653 636.983 257.888C637.426 258.123 637.973 258.24 638.623 258.24ZM638.759 257.224C638.295 257.224 637.922 257.149 637.639 257C637.362 256.845 637.159 256.651 637.031 256.416C636.909 256.176 636.847 255.931 636.847 255.68C636.847 255.211 637.005 254.859 637.319 254.624C637.634 254.389 637.975 254.219 638.343 254.112C638.818 253.984 639.37 253.88 639.999 253.8C640.629 253.72 641.226 253.645 641.791 253.576C641.791 253.773 641.783 254 641.767 254.256C641.757 254.507 641.727 254.739 641.679 254.952C641.567 255.603 641.258 256.144 640.751 256.576C640.25 257.008 639.586 257.224 638.759 257.224Z" fill="#ADADAD"/>
<path d="M497.5 352.534V270.951L521.5 287.466V369.049L497.5 352.534Z" fill="#E5F6FD" stroke="#B7B7B7"/>
<path d="M530.5 374.534V292.951L554.5 309.466V391.049L530.5 374.534Z" fill="#E5F6FD" stroke="#B7B7B7"/>
<path d="M565 445L498.52 399L346 399" stroke="#D0D0D0"/>
<path d="M261.5 400H71" stroke="#D0D0D0"/>
<line x1="565.5" y1="414" x2="565.5" y2="453" stroke="#D0D0D0"/>
<line x1="71.5" y1="366" x2="71.5" y2="409" stroke="#D0D0D0"/>
<path d="M275.526 405H285.43V396.36H284.286V403.912H281.054V396.36H279.91V403.912H276.67V396.36H275.526V405ZM294.539 396.36H293.555L288.811 403.032V396.36H287.667V405H288.659L293.395 398.272V405H294.539V396.36ZM296.776 408.84H297.96V403.968C298.269 404.363 298.651 404.675 299.104 404.904C299.557 405.128 300.077 405.24 300.664 405.24C301.475 405.24 302.165 405.04 302.736 404.64C303.307 404.235 303.741 403.688 304.04 403C304.344 402.312 304.496 401.536 304.496 400.672C304.496 399.813 304.344 399.04 304.04 398.352C303.741 397.664 303.309 397.12 302.744 396.72C302.179 396.32 301.501 396.12 300.712 396.12C300.072 396.12 299.509 396.248 299.024 396.504C298.544 396.755 298.147 397.104 297.832 397.552V396.36H296.776V408.84ZM300.544 404.144C299.931 404.144 299.424 403.995 299.024 403.696C298.624 403.392 298.325 402.979 298.128 402.456C297.931 401.933 297.832 401.339 297.832 400.672C297.832 399.653 298.053 398.824 298.496 398.184C298.944 397.539 299.619 397.216 300.52 397.216C301.139 397.216 301.648 397.368 302.048 397.672C302.453 397.976 302.755 398.389 302.952 398.912C303.149 399.435 303.248 400.021 303.248 400.672C303.248 401.328 303.147 401.917 302.944 402.44C302.747 402.963 302.448 403.379 302.048 403.688C301.648 403.992 301.147 404.144 300.544 404.144ZM313.117 396.36H312.133L307.389 403.032V396.36H306.245V405H307.237L311.973 398.272V405H313.117V396.36ZM315.354 405H316.53V401.24H321.402V405H322.578V396.36H321.402V400.112H316.53V396.36H315.354V405ZM327.287 405.24C328.797 405.24 329.893 404.683 330.575 403.568V405H331.623V399.632C331.623 399.312 331.607 398.997 331.575 398.688C331.543 398.379 331.474 398.099 331.367 397.848C331.138 397.288 330.746 396.861 330.191 396.568C329.642 396.269 328.973 396.12 328.183 396.12C327.234 396.12 326.461 396.333 325.863 396.76C325.266 397.187 324.866 397.787 324.663 398.56L325.807 398.896C325.973 398.32 326.258 397.899 326.663 397.632C327.074 397.365 327.575 397.232 328.167 397.232C328.989 397.232 329.575 397.424 329.927 397.808C330.279 398.187 330.461 398.765 330.471 399.544C330.087 399.597 329.663 399.653 329.199 399.712C328.741 399.771 328.279 399.837 327.815 399.912C327.351 399.987 326.925 400.072 326.535 400.168C325.89 400.339 325.362 400.624 324.951 401.024C324.541 401.419 324.335 401.971 324.335 402.68C324.335 403.139 324.445 403.563 324.663 403.952C324.882 404.341 325.21 404.653 325.647 404.888C326.09 405.123 326.637 405.24 327.287 405.24ZM327.423 404.224C326.959 404.224 326.586 404.149 326.303 404C326.026 403.845 325.823 403.651 325.695 403.416C325.573 403.176 325.511 402.931 325.511 402.68C325.511 402.211 325.669 401.859 325.983 401.624C326.298 401.389 326.639 401.219 327.007 401.112C327.482 400.984 328.034 400.88 328.663 400.8C329.293 400.72 329.89 400.645 330.455 400.576C330.455 400.773 330.447 401 330.431 401.256C330.421 401.507 330.391 401.739 330.343 401.952C330.231 402.603 329.922 403.144 329.415 403.576C328.914 404.008 328.25 404.224 327.423 404.224Z" fill="#ADADAD"/>
<defs>
<filter id="filter0_d_307_7" x="51" y="29" width="534" height="409" filterUnits="userSpaceOnUse" color-interpolation-filters="sRGB">
<feFlood flood-opacity="0" result="BackgroundImageFix"/>
<feColorMatrix in="SourceAlpha" type="matrix" values="0 0 0 0 0 0 0 0 0 0 0 0 0 0 0 0 0 0 127 0" result="hardAlpha"/>
<feOffset dy="4"/>
<feGaussianBlur stdDeviation="10"/>
<feComposite in2="hardAlpha" operator="out"/>
<feColorMatrix type="matrix" values="0 0 0 0 0 0 0 0 0 0 0 0 0 0 0 0 0 0 0.1 0"/>
<feBlend mode="normal" in2="BackgroundImageFix" result="effect1_dropShadow_307_7"/>
<feBlend mode="normal" in="SourceGraphic" in2="effect1_dropShadow_307_7" result="shape"/>
</filter>
<linearGradient id="paint0_linear_307_7" x1="197.657" y1="69" x2="242.107" y2="236.087" gradientUnits="userSpaceOnUse">
<stop stop-color="white" stop-opacity="0.54"/>
<stop offset="1" stop-color="white" stop-opacity="0"/>
</linearGradient>
<linearGradient id="paint1_linear_307_7" x1="94.7411" y1="69" x2="139.192" y2="236.087" gradientUnits="userSpaceOnUse">
<stop stop-color="white" stop-opacity="0.54"/>
<stop offset="1" stop-color="white" stop-opacity="0"/>
</linearGradient>
<linearGradient id="paint2_linear_307_7" x1="197.657" y1="273.746" x2="205.802" y2="347.307" gradientUnits="userSpaceOnUse">
<stop stop-color="white" stop-opacity="0.54"/>
<stop offset="1" stop-color="white" stop-opacity="0"/>
</linearGradient>
<linearGradient id="paint3_linear_307_7" x1="94.7412" y1="273.746" x2="102.886" y2="347.307" gradientUnits="userSpaceOnUse">
<stop stop-color="white" stop-opacity="0.54"/>
<stop offset="1" stop-color="white" stop-opacity="0"/>
</linearGradient>
<linearGradient id="paint4_linear_307_7" x1="300.634" y1="69" x2="345.085" y2="236.087" gradientUnits="userSpaceOnUse">
<stop stop-color="white" stop-opacity="0.54"/>
<stop offset="1" stop-color="white" stop-opacity="0"/>
</linearGradient>
<linearGradient id="paint5_linear_307_7" x1="300.634" y1="273.746" x2="308.779" y2="347.307" gradientUnits="userSpaceOnUse">
<stop stop-color="white" stop-opacity="0.54"/>
<stop offset="1" stop-color="white" stop-opacity="0"/>
</linearGradient>
<linearGradient id="paint6_linear_307_7" x1="403.612" y1="69" x2="448.062" y2="236.087" gradientUnits="userSpaceOnUse">
<stop stop-color="white" stop-opacity="0.54"/>
<stop offset="1" stop-color="white" stop-opacity="0"/>
</linearGradient>
<linearGradient id="paint7_linear_307_7" x1="403.612" y1="273.746" x2="411.757" y2="347.307" gradientUnits="userSpaceOnUse">
<stop stop-color="white" stop-opacity="0.54"/>
<stop offset="1" stop-color="white" stop-opacity="0"/>
</linearGradient>
</defs>
</svg>
