<svg width="650" height="475" viewBox="0 0 650 475" fill="none" xmlns="http://www.w3.org/2000/svg">
<rect width="650" height="475" rx="10" fill="white"/>
<g filter="url(#filter0_d_307_11)">
<path d="M23 84L95 49L198.5 31L249.25 24L299.224 20.0612C299.74 20.0205 300.26 20.02 300.776 20.0597L404 28L508 47L578 87V413L503 369L404 351L301.776 343.06C301.26 343.02 300.74 343.02 300.224 343.061L198.5 351L95 371.5L23 413V84Z" fill="white"/>
<path d="M577.5 87.2901V412.127L503.253 368.569L503.177 368.524L503.089 368.508L404.089 350.508L404.064 350.503L404.039 350.501L301.815 342.562C301.272 342.52 300.727 342.52 300.185 342.562L198.461 350.502L198.432 350.504L198.403 350.51L94.9029 371.01L94.8219 371.026L94.7503 371.067L23.5 412.135V84.3129L95.1552 49.4805L198.577 31.4941L249.304 24.4973L299.263 20.5596C299.754 20.5209 300.247 20.5205 300.738 20.5583L403.936 28.4965L507.826 47.4765L577.5 87.2901Z" stroke="#B7B7B7"/>
</g>
<path d="M306.5 74.8174V33.3787L398.736 42.2822V83.7209L306.5 74.8174Z" fill="#E5F6FD" stroke="#B7B7B7"/>
<path d="M306 32.8281L398 43.9995L306 75.2715V32.8281Z" fill="url(#paint0_linear_307_11)"/>
<path d="M294.995 75.989V34.5502L202.136 43.4543V84.8931L294.995 75.989Z" fill="#E5F6FD" stroke="#B7B7B7"/>
<path d="M295.495 34H201.636L295.495 76.4434V34Z" fill="url(#paint1_linear_307_11)"/>
<path d="M409.629 87.0219V45.5931L501.866 61.4215V102.85L409.629 87.0219Z" fill="#E5F6FD" stroke="#B7B7B7"/>
<path d="M409.129 45L501 60.5L409.129 87.4434V45Z" fill="url(#paint2_linear_307_11)"/>
<path d="M191.177 88.1933V46.7643L98.3181 62.5939V104.023L191.177 88.1933Z" fill="#E5F6FD" stroke="#B7B7B7"/>
<path d="M191.677 46.1719L100.5 63.0005L191.677 88.6152V46.1719Z" fill="url(#paint3_linear_307_11)"/>
<path d="M512.5 103.923V65.855L564.5 95.1088V136.103L512.5 103.923Z" fill="#E5F6FD" stroke="#B7B7B7"/>
<path d="M512.259 62H605.495L512.259 104.443V62Z" fill="url(#paint4_linear_307_11)"/>
<path d="M86.6196 106.09V68.0102L34.2657 96.2865V137.292L86.6196 106.09Z" fill="#E5F6FD" stroke="#B7B7B7"/>
<path d="M306.5 233.542V85.5584L398.736 93.4726V241.456L306.5 233.542Z" fill="#E5F6FD" stroke="#B7B7B7"/>
<path d="M306 85.0137H399.236L306 234.001V85.0137Z" fill="url(#paint5_linear_307_11)"/>
<path d="M294.995 235.712V86.729L202.136 94.6438V243.627L294.995 235.712Z" fill="#E5F6FD" stroke="#B7B7B7"/>
<path d="M202 86H295L202 235V86Z" fill="url(#paint6_linear_307_11)"/>
<path d="M409.629 245.75V97.7777L501.866 113.606V261.579L409.629 245.75Z" fill="#E5F6FD" stroke="#B7B7B7"/>
<path d="M409.129 97.1846L500 115L409.129 246.172V97.1846Z" fill="url(#paint7_linear_307_11)"/>
<path d="M191.177 246.921V98.9479L98.3181 114.777V262.75L191.177 246.921Z" fill="#E5F6FD" stroke="#B7B7B7"/>
<path d="M191.677 98.3555L103 115.5L191.677 247.343V98.3555Z" fill="url(#paint8_linear_307_11)"/>
<path d="M512.759 262.891V116.076L564.1 147.465V294.28L512.759 262.891Z" fill="#E5F6FD" stroke="#B7B7B7"/>
<path d="M512.259 114.185L564 146L512.259 263.172V114.185Z" fill="url(#paint9_linear_307_11)"/>
<path d="M87.3589 264.057V117.244L35.6686 148.637V294.468L87.3589 264.057Z" fill="#E5F6FD" stroke="#B7B7B7"/>
<path d="M87.8589 115.355L34.5 149.5L87.8589 264.343V115.355Z" fill="url(#paint10_linear_307_11)"/>
<path d="M306.5 327.949V246.545L398.736 254.459V335.863L306.5 327.949Z" fill="#E5F6FD" stroke="#B7B7B7"/>
<path d="M306 246L399 255L306 328.408V246Z" fill="url(#paint11_linear_307_11)"/>
<path d="M294.995 329.121V247.716L202.136 255.631V337.035L294.995 329.121Z" fill="#E5F6FD" stroke="#B7B7B7"/>
<path d="M295.495 247.172H201.636L295.495 329.58V247.172Z" fill="url(#paint12_linear_307_11)"/>
<path d="M409.629 339.982V257.593L501.866 273.422V354.821L409.629 339.982Z" fill="#E5F6FD" stroke="#B7B7B7"/>
<path d="M409.129 259.5L502 276.5L409.129 328.408V259.5Z" fill="url(#paint13_linear_307_11)"/>
<path d="M191.177 341.153V258.758L98.3181 273.598V355.993L191.177 341.153Z" fill="#E5F6FD" stroke="#B7B7B7"/>
<path d="M512.759 357.295V277.049L564.1 307.457V387.702L512.759 357.295Z" fill="#E5F6FD" stroke="#B7B7B7"/>
<path d="M512.259 275.172L562.5 306L512.259 357.58V275.172Z" fill="url(#paint14_linear_307_11)"/>
<path d="M87.3589 358.465V278.217L35.6686 308.629V388.876L87.3589 358.465Z" fill="#E5F6FD" stroke="#B7B7B7"/>
<path d="M87.8589 276.343L34 309.5L87.8589 358.751V276.343Z" fill="url(#paint15_linear_307_11)"/>
<line x1="578" y1="88.5" x2="631" y2="88.5" stroke="#D0D0D0"/>
<line x1="619.5" y1="92" x2="619.5" y2="221" stroke="#D0D0D0"/>
<line x1="619.5" y1="282" x2="619.5" y2="406" stroke="#D0D0D0"/>
<path d="M577.5 462.5L504 418.5L397 400.5L341.5 400.5" stroke="#D0D0D0"/>
<path d="M24.5 467.5L101 420.5L219.782 401L263.5 401" stroke="#D0D0D0"/>
<line x1="578" y1="411.5" x2="631" y2="411.5" stroke="#D0D0D0"/>
<line x1="577.5" y1="411" x2="577.5" y2="475" stroke="#D0D0D0"/>
<path d="M24 411L24 475" stroke="#D0D0D0"/>
<path d="M592.19 258H596.214C596.433 258 596.665 257.992 596.91 257.976C597.161 257.96 597.393 257.923 597.606 257.864C598.081 257.725 598.459 257.469 598.742 257.096C599.025 256.723 599.166 256.24 599.166 255.648C599.166 254.795 598.851 254.179 598.222 253.8C598.03 253.683 597.846 253.608 597.67 253.576C597.867 253.491 598.049 253.357 598.214 253.176C598.385 253 598.515 252.792 598.606 252.552C598.702 252.307 598.75 252.029 598.75 251.72C598.75 251.165 598.601 250.693 598.302 250.304C598.009 249.909 597.619 249.645 597.134 249.512C596.91 249.453 596.667 249.413 596.406 249.392C596.15 249.371 595.931 249.36 595.75 249.36H592.19V258ZM593.374 253.176V250.368H595.63C595.689 250.368 595.827 250.373 596.046 250.384C596.27 250.395 596.478 250.435 596.67 250.504C596.953 250.595 597.163 250.757 597.302 250.992C597.446 251.221 597.518 251.485 597.518 251.784C597.518 252.061 597.451 252.317 597.318 252.552C597.19 252.787 596.987 252.952 596.71 253.048C596.577 253.096 596.425 253.131 596.254 253.152C596.083 253.168 595.929 253.176 595.79 253.176H593.374ZM593.374 257V254.184H595.99C596.097 254.184 596.217 254.187 596.35 254.192C596.489 254.197 596.617 254.213 596.734 254.24C597.097 254.293 597.39 254.443 597.614 254.688C597.838 254.928 597.95 255.237 597.95 255.616C597.95 255.904 597.875 256.171 597.726 256.416C597.582 256.656 597.353 256.816 597.038 256.896C596.905 256.933 596.753 256.96 596.582 256.976C596.411 256.992 596.27 257 596.158 257H593.374ZM600.769 258H603.545C603.79 258 604.041 257.995 604.297 257.984C604.558 257.968 604.795 257.936 605.009 257.888C605.595 257.76 606.078 257.483 606.457 257.056C606.841 256.629 607.033 256.045 607.033 255.304C607.033 254.493 606.822 253.888 606.401 253.488C605.985 253.088 605.459 252.824 604.825 252.696C604.633 252.664 604.417 252.643 604.177 252.632C603.937 252.621 603.691 252.616 603.441 252.616H601.937V249.36H600.753L600.769 258ZM608.065 258H609.241V249.36H608.065V258ZM601.937 256.992V253.624H603.497C603.667 253.624 603.849 253.629 604.041 253.64C604.233 253.651 604.414 253.675 604.585 253.712C604.958 253.792 605.257 253.957 605.481 254.208C605.705 254.453 605.817 254.819 605.817 255.304C605.817 255.8 605.699 256.168 605.465 256.408C605.23 256.648 604.971 256.808 604.689 256.888C604.518 256.936 604.321 256.965 604.097 256.976C603.873 256.987 603.673 256.992 603.497 256.992H601.937ZM615.063 258.24C615.922 258.24 616.658 258.04 617.271 257.64C617.89 257.235 618.362 256.648 618.687 255.88L617.503 255.528C617.066 256.584 616.253 257.112 615.063 257.112C614.135 257.112 613.437 256.8 612.967 256.176C612.498 255.547 612.258 254.715 612.247 253.68C612.258 252.672 612.49 251.848 612.943 251.208C613.402 250.568 614.109 250.248 615.063 250.248C615.629 250.248 616.13 250.392 616.567 250.68C617.01 250.963 617.333 251.363 617.535 251.88L618.687 251.512C618.447 250.771 618.002 250.187 617.351 249.76C616.706 249.333 615.946 249.12 615.071 249.12C614.213 249.12 613.482 249.312 612.879 249.696C612.277 250.075 611.815 250.608 611.495 251.296C611.175 251.979 611.01 252.773 610.999 253.68C611.01 254.565 611.17 255.352 611.479 256.04C611.794 256.728 612.253 257.267 612.855 257.656C613.458 258.045 614.194 258.24 615.063 258.24ZM623.712 258.24C624.566 258.24 625.296 258.048 625.904 257.664C626.518 257.28 626.987 256.747 627.312 256.064C627.643 255.376 627.808 254.579 627.808 253.672C627.808 252.781 627.646 251.995 627.32 251.312C627 250.624 626.534 250.088 625.92 249.704C625.312 249.315 624.576 249.12 623.712 249.12C622.87 249.12 622.142 249.312 621.528 249.696C620.92 250.075 620.451 250.605 620.12 251.288C619.79 251.971 619.624 252.765 619.624 253.672C619.624 254.563 619.784 255.352 620.104 256.04C620.43 256.728 620.896 257.267 621.504 257.656C622.118 258.045 622.854 258.24 623.712 258.24ZM623.712 257.112C622.779 257.112 622.072 256.8 621.592 256.176C621.112 255.547 620.872 254.712 620.872 253.672C620.872 252.664 621.104 251.843 621.568 251.208C622.032 250.568 622.747 250.248 623.712 250.248C624.667 250.248 625.379 250.56 625.848 251.184C626.323 251.803 626.56 252.632 626.56 253.672C626.56 254.691 626.326 255.52 625.856 256.16C625.387 256.795 624.672 257.112 623.712 257.112ZM631.698 258H632.874V250.448H635.938V249.36H628.634V250.448H631.698V258ZM639.623 258.24C641.133 258.24 642.229 257.683 642.911 256.568V258H643.959V252.632C643.959 252.312 643.943 251.997 643.911 251.688C643.879 251.379 643.81 251.099 643.703 250.848C643.474 250.288 643.082 249.861 642.527 249.568C641.978 249.269 641.309 249.12 640.519 249.12C639.57 249.12 638.797 249.333 638.199 249.76C637.602 250.187 637.202 250.787 636.999 251.56L638.143 251.896C638.309 251.32 638.594 250.899 638.999 250.632C639.41 250.365 639.911 250.232 640.503 250.232C641.325 250.232 641.911 250.424 642.263 250.808C642.615 251.187 642.797 251.765 642.807 252.544C642.423 252.597 641.999 252.653 641.535 252.712C641.077 252.771 640.615 252.837 640.151 252.912C639.687 252.987 639.261 253.072 638.871 253.168C638.226 253.339 637.698 253.624 637.287 254.024C636.877 254.419 636.671 254.971 636.671 255.68C636.671 256.139 636.781 256.563 636.999 256.952C637.218 257.341 637.546 257.653 637.983 257.888C638.426 258.123 638.973 258.24 639.623 258.24ZM639.759 257.224C639.295 257.224 638.922 257.149 638.639 257C638.362 256.845 638.159 256.651 638.031 256.416C637.909 256.176 637.847 255.931 637.847 255.68C637.847 255.211 638.005 254.859 638.319 254.624C638.634 254.389 638.975 254.219 639.343 254.112C639.818 253.984 640.37 253.88 640.999 253.8C641.629 253.72 642.226 253.645 642.791 253.576C642.791 253.773 642.783 254 642.767 254.256C642.757 254.507 642.727 254.739 642.679 254.952C642.567 255.603 642.258 256.144 641.751 256.576C641.25 257.008 640.586 257.224 639.759 257.224Z" fill="#ADADAD"/>
<path d="M275.526 405H285.43V396.36H284.286V403.912H281.054V396.36H279.91V403.912H276.67V396.36H275.526V405ZM294.539 396.36H293.555L288.811 403.032V396.36H287.667V405H288.659L293.395 398.272V405H294.539V396.36ZM296.776 408.84H297.96V403.968C298.269 404.363 298.651 404.675 299.104 404.904C299.557 405.128 300.077 405.24 300.664 405.24C301.475 405.24 302.165 405.04 302.736 404.64C303.307 404.235 303.741 403.688 304.04 403C304.344 402.312 304.496 401.536 304.496 400.672C304.496 399.813 304.344 399.04 304.04 398.352C303.741 397.664 303.309 397.12 302.744 396.72C302.179 396.32 301.501 396.12 300.712 396.12C300.072 396.12 299.509 396.248 299.024 396.504C298.544 396.755 298.147 397.104 297.832 397.552V396.36H296.776V408.84ZM300.544 404.144C299.931 404.144 299.424 403.995 299.024 403.696C298.624 403.392 298.325 402.979 298.128 402.456C297.931 401.933 297.832 401.339 297.832 400.672C297.832 399.653 298.053 398.824 298.496 398.184C298.944 397.539 299.619 397.216 300.52 397.216C301.139 397.216 301.648 397.368 302.048 397.672C302.453 397.976 302.755 398.389 302.952 398.912C303.149 399.435 303.248 400.021 303.248 400.672C303.248 401.328 303.147 401.917 302.944 402.44C302.747 402.963 302.448 403.379 302.048 403.688C301.648 403.992 301.147 404.144 300.544 404.144ZM313.117 396.36H312.133L307.389 403.032V396.36H306.245V405H307.237L311.973 398.272V405H313.117V396.36ZM315.354 405H316.53V401.24H321.402V405H322.578V396.36H321.402V400.112H316.53V396.36H315.354V405ZM327.287 405.24C328.797 405.24 329.893 404.683 330.575 403.568V405H331.623V399.632C331.623 399.312 331.607 398.997 331.575 398.688C331.543 398.379 331.474 398.099 331.367 397.848C331.138 397.288 330.746 396.861 330.191 396.568C329.642 396.269 328.973 396.12 328.183 396.12C327.234 396.12 326.461 396.333 325.863 396.76C325.266 397.187 324.866 397.787 324.663 398.56L325.807 398.896C325.973 398.32 326.258 397.899 326.663 397.632C327.074 397.365 327.575 397.232 328.167 397.232C328.989 397.232 329.575 397.424 329.927 397.808C330.279 398.187 330.461 398.765 330.471 399.544C330.087 399.597 329.663 399.653 329.199 399.712C328.741 399.771 328.279 399.837 327.815 399.912C327.351 399.987 326.925 400.072 326.535 400.168C325.89 400.339 325.362 400.624 324.951 401.024C324.541 401.419 324.335 401.971 324.335 402.68C324.335 403.139 324.445 403.563 324.663 403.952C324.882 404.341 325.21 404.653 325.647 404.888C326.09 405.123 326.637 405.24 327.287 405.24ZM327.423 404.224C326.959 404.224 326.586 404.149 326.303 404C326.026 403.845 325.823 403.651 325.695 403.416C325.573 403.176 325.511 402.931 325.511 402.68C325.511 402.211 325.669 401.859 325.983 401.624C326.298 401.389 326.639 401.219 327.007 401.112C327.482 400.984 328.034 400.88 328.663 400.8C329.293 400.72 329.89 400.645 330.455 400.576C330.455 400.773 330.447 401 330.431 401.256C330.421 401.507 330.391 401.739 330.343 401.952C330.231 402.603 329.922 403.144 329.415 403.576C328.914 404.008 328.25 404.224 327.423 404.224Z" fill="#ADADAD"/>
<defs>
<filter id="filter0_d_307_11" x="3" y="4.03027" width="595" height="432.97" filterUnits="userSpaceOnUse" color-interpolation-filters="sRGB">
<feFlood flood-opacity="0" result="BackgroundImageFix"/>
<feColorMatrix in="SourceAlpha" type="matrix" values="0 0 0 0 0 0 0 0 0 0 0 0 0 0 0 0 0 0 127 0" result="hardAlpha"/>
<feOffset dy="4"/>
<feGaussianBlur stdDeviation="10"/>
<feComposite in2="hardAlpha" operator="out"/>
<feColorMatrix type="matrix" values="0 0 0 0 0 0 0 0 0 0 0 0 0 0 0 0 0 0 0.1 0"/>
<feBlend mode="normal" in2="BackgroundImageFix" result="effect1_dropShadow_307_11"/>
<feBlend mode="normal" in="SourceGraphic" in2="effect1_dropShadow_307_11" result="shape"/>
</filter>
<linearGradient id="paint0_linear_307_11" x1="315.741" y1="34.7574" x2="317.921" y2="72.9847" gradientUnits="userSpaceOnUse">
<stop stop-color="white" stop-opacity="0.54"/>
<stop offset="1" stop-color="white" stop-opacity="0"/>
</linearGradient>
<linearGradient id="paint1_linear_307_11" x1="285.689" y1="35.9292" x2="283.523" y2="74.1582" gradientUnits="userSpaceOnUse">
<stop stop-color="white" stop-opacity="0.54"/>
<stop offset="1" stop-color="white" stop-opacity="0"/>
</linearGradient>
<linearGradient id="paint2_linear_307_11" x1="418.87" y1="46.9292" x2="421.05" y2="85.1566" gradientUnits="userSpaceOnUse">
<stop stop-color="white" stop-opacity="0.54"/>
<stop offset="1" stop-color="white" stop-opacity="0"/>
</linearGradient>
<linearGradient id="paint3_linear_307_11" x1="181.871" y1="48.1011" x2="179.705" y2="86.3301" gradientUnits="userSpaceOnUse">
<stop stop-color="white" stop-opacity="0.54"/>
<stop offset="1" stop-color="white" stop-opacity="0"/>
</linearGradient>
<linearGradient id="paint4_linear_307_11" x1="522" y1="63.9292" x2="524.18" y2="102.157" gradientUnits="userSpaceOnUse">
<stop stop-color="white" stop-opacity="0.54"/>
<stop offset="1" stop-color="white" stop-opacity="0"/>
</linearGradient>
<linearGradient id="paint5_linear_307_11" x1="315.741" y1="91.7858" x2="341.652" y2="221.223" gradientUnits="userSpaceOnUse">
<stop stop-color="white" stop-opacity="0.54"/>
<stop offset="1" stop-color="white" stop-opacity="0"/>
</linearGradient>
<linearGradient id="paint6_linear_307_11" x1="211.716" y1="92.7727" x2="237.692" y2="222.195" gradientUnits="userSpaceOnUse">
<stop stop-color="white" stop-opacity="0.54"/>
<stop offset="1" stop-color="white" stop-opacity="0"/>
</linearGradient>
<linearGradient id="paint7_linear_307_11" x1="418.87" y1="103.957" x2="444.781" y2="233.394" gradientUnits="userSpaceOnUse">
<stop stop-color="white" stop-opacity="0.54"/>
<stop offset="1" stop-color="white" stop-opacity="0"/>
</linearGradient>
<linearGradient id="paint8_linear_307_11" x1="181.871" y1="105.128" x2="156.119" y2="234.631" gradientUnits="userSpaceOnUse">
<stop stop-color="white" stop-opacity="0.54"/>
<stop offset="1" stop-color="white" stop-opacity="0"/>
</linearGradient>
<linearGradient id="paint9_linear_307_11" x1="517.727" y1="120.957" x2="560.317" y2="240.394" gradientUnits="userSpaceOnUse">
<stop stop-color="white" stop-opacity="0.54"/>
<stop offset="1" stop-color="white" stop-opacity="0"/>
</linearGradient>
<linearGradient id="paint10_linear_307_11" x1="82.3539" y1="122.128" x2="39.9839" y2="241.743" gradientUnits="userSpaceOnUse">
<stop stop-color="white" stop-opacity="0.54"/>
<stop offset="1" stop-color="white" stop-opacity="0"/>
</linearGradient>
<linearGradient id="paint11_linear_307_11" x1="315.741" y1="249.746" x2="323.886" y2="323.307" gradientUnits="userSpaceOnUse">
<stop stop-color="white" stop-opacity="0.54"/>
<stop offset="1" stop-color="white" stop-opacity="0"/>
</linearGradient>
<linearGradient id="paint12_linear_307_11" x1="285.689" y1="250.918" x2="277.597" y2="324.491" gradientUnits="userSpaceOnUse">
<stop stop-color="white" stop-opacity="0.54"/>
<stop offset="1" stop-color="white" stop-opacity="0"/>
</linearGradient>
<linearGradient id="paint13_linear_307_11" x1="418.87" y1="249.746" x2="427.015" y2="323.307" gradientUnits="userSpaceOnUse">
<stop stop-color="white" stop-opacity="0.54"/>
<stop offset="1" stop-color="white" stop-opacity="0"/>
</linearGradient>
<linearGradient id="paint14_linear_307_11" x1="517.727" y1="278.918" x2="531.864" y2="350.593" gradientUnits="userSpaceOnUse">
<stop stop-color="white" stop-opacity="0.54"/>
<stop offset="1" stop-color="white" stop-opacity="0"/>
</linearGradient>
<linearGradient id="paint15_linear_307_11" x1="82.3539" y1="280.089" x2="68.304" y2="351.799" gradientUnits="userSpaceOnUse">
<stop stop-color="white" stop-opacity="0.54"/>
<stop offset="1" stop-color="white" stop-opacity="0"/>
</linearGradient>
</defs>
</svg>
