<svg width="648" height="456" viewBox="0 0 648 456" fill="none" xmlns="http://www.w3.org/2000/svg">
<g filter="url(#filter0_d_110_450)">
<path d="M20 80L92 45L195.5 27L246.25 20L296.224 16.0612C296.74 16.0205 297.26 16.02 297.776 16.0597L401 24L505 43L575 83V409L500 365L401 347L298.776 339.06C298.26 339.02 297.74 339.02 297.224 339.061L195.5 347L92 367.5L20 409V80Z" fill="white"/>
<path d="M574.5 83.2901V408.127L500.253 364.569L500.177 364.524L500.089 364.508L401.089 346.508L401.064 346.503L401.039 346.501L298.815 338.562C298.272 338.52 297.727 338.52 297.185 338.562L195.461 346.502L195.432 346.504L195.403 346.51L91.9029 367.01L91.8219 367.026L91.7503 367.067L20.5 408.135V80.3129L92.1552 45.4805L195.577 27.4941L246.304 20.4973L296.263 16.5596C296.754 16.5209 297.247 16.5205 297.738 16.5583L400.936 24.4965L504.826 43.4765L574.5 83.2901Z" stroke="#B7B7B7"/>
</g>
<path d="M303.5 70.8179V29.3792L395.736 38.2827V79.7214L303.5 70.8179Z" fill="#E5F6FD" stroke="#B7B7B7"/>
<path d="M303 28.8286L395 40L303 71.272V28.8286Z" fill="url(#paint0_linear_110_450)"/>
<path d="M291.995 71.989V30.5502L199.136 39.4543V80.8931L291.995 71.989Z" fill="#E5F6FD" stroke="#B7B7B7"/>
<path d="M292.495 30H198.636L292.495 72.4434V30Z" fill="url(#paint1_linear_110_450)"/>
<path d="M406.629 83.0219V41.5931L498.866 57.4215V98.8503L406.629 83.0219Z" fill="#E5F6FD" stroke="#B7B7B7"/>
<path d="M406.129 41L498 56.5L406.129 83.4434V41Z" fill="url(#paint2_linear_110_450)"/>
<path d="M188.177 84.1928V42.7638L95.3181 58.5934V100.022L188.177 84.1928Z" fill="#E5F6FD" stroke="#B7B7B7"/>
<path d="M188.677 42.1714L97.5 59L188.677 84.6148V42.1714Z" fill="url(#paint3_linear_110_450)"/>
<path d="M509.5 99.9234V61.855L561.5 91.1088V132.103L509.5 99.9234Z" fill="#E5F6FD" stroke="#B7B7B7"/>
<path d="M509.259 58H602.495L509.259 100.443V58Z" fill="url(#paint4_linear_110_450)"/>
<path d="M83.6195 102.089V64.0097L31.2656 92.286V133.291L83.6195 102.089Z" fill="#E5F6FD" stroke="#B7B7B7"/>
<path d="M303.5 229.541V81.5579L395.736 89.4721V237.456L303.5 229.541Z" fill="#E5F6FD" stroke="#B7B7B7"/>
<path d="M303 81.0132H396.236L303 230V81.0132Z" fill="url(#paint5_linear_110_450)"/>
<path d="M291.995 231.712V82.729L199.136 90.6438V239.627L291.995 231.712Z" fill="#E5F6FD" stroke="#B7B7B7"/>
<path d="M199 82H292L199 231V82Z" fill="url(#paint6_linear_110_450)"/>
<path d="M406.629 241.75V93.7777L498.866 109.606V257.579L406.629 241.75Z" fill="#E5F6FD" stroke="#B7B7B7"/>
<path d="M406.129 93.1846L497 111L406.129 242.172V93.1846Z" fill="url(#paint7_linear_110_450)"/>
<path d="M188.177 242.921V94.9484L95.3181 110.778V258.751L188.177 242.921Z" fill="#E5F6FD" stroke="#B7B7B7"/>
<path d="M188.677 94.356L100 111.5L188.677 243.343V94.356Z" fill="url(#paint8_linear_110_450)"/>
<path d="M509.759 258.891V112.076L561.1 143.465V290.28L509.759 258.891Z" fill="#E5F6FD" stroke="#B7B7B7"/>
<path d="M509.259 110.185L561 142L509.259 259.172V110.185Z" fill="url(#paint9_linear_110_450)"/>
<path d="M84.3589 260.057V113.245L32.6686 144.637V290.469L84.3589 260.057Z" fill="#E5F6FD" stroke="#B7B7B7"/>
<path d="M84.8589 111.356L31.5 145.5L84.8589 260.343V111.356Z" fill="url(#paint10_linear_110_450)"/>
<path d="M303.5 323.949V242.545L395.736 250.459V331.863L303.5 323.949Z" fill="#E5F6FD" stroke="#B7B7B7"/>
<path d="M303 242L396 251L303 324.408V242Z" fill="url(#paint11_linear_110_450)"/>
<path d="M291.995 325.12V243.716L199.136 251.631V333.035L291.995 325.12Z" fill="#E5F6FD" stroke="#B7B7B7"/>
<path d="M292.495 243.171H198.636L292.495 325.579V243.171Z" fill="url(#paint12_linear_110_450)"/>
<path d="M406.629 335.982V253.593L498.866 269.422V350.821L406.629 335.982Z" fill="#E5F6FD" stroke="#B7B7B7"/>
<path d="M406.129 255.5L499 272.5L406.129 324.408V255.5Z" fill="url(#paint13_linear_110_450)"/>
<path d="M188.177 337.153V254.758L95.3181 269.598V351.993L188.177 337.153Z" fill="#E5F6FD" stroke="#B7B7B7"/>
<path d="M509.759 353.294V273.049L561.1 303.456V383.702L509.759 353.294Z" fill="#E5F6FD" stroke="#B7B7B7"/>
<path d="M509.259 271.171L559.5 302L509.259 353.579V271.171Z" fill="url(#paint14_linear_110_450)"/>
<path d="M84.3589 354.465V274.217L32.6686 304.629V384.876L84.3589 354.465Z" fill="#E5F6FD" stroke="#B7B7B7"/>
<path d="M84.8589 272.343L31 305.5L84.8589 354.751V272.343Z" fill="url(#paint15_linear_110_450)"/>
<line x1="575" y1="84.5" x2="628" y2="84.5" stroke="#D0D0D0"/>
<line x1="616.5" y1="88" x2="616.5" y2="212" stroke="#D0D0D0"/>
<line x1="616.5" y1="278" x2="616.5" y2="402" stroke="#D0D0D0"/>
<path d="M574.5 447.5L501 403.5L394 385.5L345 385.5" stroke="#D0D0D0"/>
<path d="M21.5 450.5L98 403.5L216.782 384L255 384" stroke="#D0D0D0"/>
<line x1="575" y1="407.5" x2="628" y2="407.5" stroke="#D0D0D0"/>
<line x1="574.5" y1="407" x2="574.5" y2="453" stroke="#D0D0D0"/>
<path d="M21.5 407L21.5 455.5" stroke="#D0D0D0"/>
<rect x="583.5" y="225.5" width="64" height="37" rx="3.5" fill="white" stroke="#D0D0D0"/>
<rect x="270.5" y="362.5" width="64" height="37" rx="3.5" fill="white" stroke="#D0D0D0"/>
<path d="M606.55 249H607.694V242.872L610.598 249H611.342L614.246 242.872V249H615.382V240.36H614.342L610.966 247.432L607.598 240.36H606.55V249ZM617.612 249H618.756V242.872L621.66 249H622.404L625.308 242.872V249H626.444V240.36H625.404L622.028 247.432L618.66 240.36H617.612V249Z" fill="#ADADAD"/>
<path d="M293.55 386H294.694V379.872L297.598 386H298.342L301.246 379.872V386H302.382V377.36H301.342L297.966 384.432L294.598 377.36H293.55V386ZM304.612 386H305.756V379.872L308.66 386H309.404L312.308 379.872V386H313.444V377.36H312.404L309.028 384.432L305.66 377.36H304.612V386Z" fill="#ADADAD"/>
<defs>
<filter id="filter0_d_110_450" x="0" y="0.0302734" width="595" height="432.97" filterUnits="userSpaceOnUse" color-interpolation-filters="sRGB">
<feFlood flood-opacity="0" result="BackgroundImageFix"/>
<feColorMatrix in="SourceAlpha" type="matrix" values="0 0 0 0 0 0 0 0 0 0 0 0 0 0 0 0 0 0 127 0" result="hardAlpha"/>
<feOffset dy="4"/>
<feGaussianBlur stdDeviation="10"/>
<feComposite in2="hardAlpha" operator="out"/>
<feColorMatrix type="matrix" values="0 0 0 0 0 0 0 0 0 0 0 0 0 0 0 0 0 0 0.1 0"/>
<feBlend mode="normal" in2="BackgroundImageFix" result="effect1_dropShadow_110_450"/>
<feBlend mode="normal" in="SourceGraphic" in2="effect1_dropShadow_110_450" result="shape"/>
</filter>
<linearGradient id="paint0_linear_110_450" x1="312.741" y1="30.7579" x2="314.921" y2="68.9852" gradientUnits="userSpaceOnUse">
<stop stop-color="white" stop-opacity="0.54"/>
<stop offset="1" stop-color="white" stop-opacity="0"/>
</linearGradient>
<linearGradient id="paint1_linear_110_450" x1="282.689" y1="31.9292" x2="280.523" y2="70.1582" gradientUnits="userSpaceOnUse">
<stop stop-color="white" stop-opacity="0.54"/>
<stop offset="1" stop-color="white" stop-opacity="0"/>
</linearGradient>
<linearGradient id="paint2_linear_110_450" x1="415.871" y1="42.9292" x2="418.051" y2="81.1566" gradientUnits="userSpaceOnUse">
<stop stop-color="white" stop-opacity="0.54"/>
<stop offset="1" stop-color="white" stop-opacity="0"/>
</linearGradient>
<linearGradient id="paint3_linear_110_450" x1="178.871" y1="44.1006" x2="176.705" y2="82.3296" gradientUnits="userSpaceOnUse">
<stop stop-color="white" stop-opacity="0.54"/>
<stop offset="1" stop-color="white" stop-opacity="0"/>
</linearGradient>
<linearGradient id="paint4_linear_110_450" x1="519" y1="59.9292" x2="521.18" y2="98.1566" gradientUnits="userSpaceOnUse">
<stop stop-color="white" stop-opacity="0.54"/>
<stop offset="1" stop-color="white" stop-opacity="0"/>
</linearGradient>
<linearGradient id="paint5_linear_110_450" x1="312.741" y1="87.7853" x2="338.652" y2="217.223" gradientUnits="userSpaceOnUse">
<stop stop-color="white" stop-opacity="0.54"/>
<stop offset="1" stop-color="white" stop-opacity="0"/>
</linearGradient>
<linearGradient id="paint6_linear_110_450" x1="208.716" y1="88.7727" x2="234.692" y2="218.195" gradientUnits="userSpaceOnUse">
<stop stop-color="white" stop-opacity="0.54"/>
<stop offset="1" stop-color="white" stop-opacity="0"/>
</linearGradient>
<linearGradient id="paint7_linear_110_450" x1="415.871" y1="99.9567" x2="441.781" y2="229.394" gradientUnits="userSpaceOnUse">
<stop stop-color="white" stop-opacity="0.54"/>
<stop offset="1" stop-color="white" stop-opacity="0"/>
</linearGradient>
<linearGradient id="paint8_linear_110_450" x1="178.871" y1="101.128" x2="153.119" y2="230.631" gradientUnits="userSpaceOnUse">
<stop stop-color="white" stop-opacity="0.54"/>
<stop offset="1" stop-color="white" stop-opacity="0"/>
</linearGradient>
<linearGradient id="paint9_linear_110_450" x1="514.727" y1="116.957" x2="557.317" y2="236.394" gradientUnits="userSpaceOnUse">
<stop stop-color="white" stop-opacity="0.54"/>
<stop offset="1" stop-color="white" stop-opacity="0"/>
</linearGradient>
<linearGradient id="paint10_linear_110_450" x1="79.3539" y1="118.128" x2="36.9839" y2="237.744" gradientUnits="userSpaceOnUse">
<stop stop-color="white" stop-opacity="0.54"/>
<stop offset="1" stop-color="white" stop-opacity="0"/>
</linearGradient>
<linearGradient id="paint11_linear_110_450" x1="312.741" y1="245.746" x2="320.886" y2="319.307" gradientUnits="userSpaceOnUse">
<stop stop-color="white" stop-opacity="0.54"/>
<stop offset="1" stop-color="white" stop-opacity="0"/>
</linearGradient>
<linearGradient id="paint12_linear_110_450" x1="282.689" y1="246.917" x2="274.597" y2="320.491" gradientUnits="userSpaceOnUse">
<stop stop-color="white" stop-opacity="0.54"/>
<stop offset="1" stop-color="white" stop-opacity="0"/>
</linearGradient>
<linearGradient id="paint13_linear_110_450" x1="415.871" y1="245.746" x2="424.015" y2="319.307" gradientUnits="userSpaceOnUse">
<stop stop-color="white" stop-opacity="0.54"/>
<stop offset="1" stop-color="white" stop-opacity="0"/>
</linearGradient>
<linearGradient id="paint14_linear_110_450" x1="514.727" y1="274.917" x2="528.864" y2="346.592" gradientUnits="userSpaceOnUse">
<stop stop-color="white" stop-opacity="0.54"/>
<stop offset="1" stop-color="white" stop-opacity="0"/>
</linearGradient>
<linearGradient id="paint15_linear_110_450" x1="79.3539" y1="276.089" x2="65.304" y2="347.799" gradientUnits="userSpaceOnUse">
<stop stop-color="white" stop-opacity="0.54"/>
<stop offset="1" stop-color="white" stop-opacity="0"/>
</linearGradient>
</defs>
</svg>
