<svg width="43" height="48" viewBox="0 0 43 48" fill="none" xmlns="http://www.w3.org/2000/svg">
<path fill-rule="evenodd" clip-rule="evenodd" d="M37 38L43 48V13L37 3L29.25 1L21.5 0L13.75 1L6 3L3 8L0 13V48L3 41L6 38L13.75 36L21.5 35L29.25 36L37 38ZM2 39.1716L4.97174 36.1998L13.3707 34.0324L21.5 32.9834L29.6293 34.0324L38.2933 36.2682L41 40.7794V13.554L35.7067 4.73176L28.8707 2.96764L21.5 2.01658L14.1293 2.96764L7.29332 4.73176L2 13.554V39.1716Z" fill="#666666"/>
<path fill-rule="evenodd" clip-rule="evenodd" d="M20 35L20 2L22 2L22 35L20 35Z" fill="#666666"/>
<path fill-rule="evenodd" clip-rule="evenodd" d="M13 35L13 2L15 2L15 35L13 35Z" fill="#666666"/>
<path fill-rule="evenodd" clip-rule="evenodd" d="M28 35L28 3L30 3L30 35L28 35Z" fill="#666666"/>
<path fill-rule="evenodd" clip-rule="evenodd" d="M5 37L5 5L7 5L7 37L5 37Z" fill="#666666"/>
<path fill-rule="evenodd" clip-rule="evenodd" d="M35.9687 37L36 5L38 5.00195L37.9687 37.0019L35.9687 37Z" fill="#666666"/>
</svg>
