<svg width="86" height="98" viewBox="0 0 86 98" fill="none" xmlns="http://www.w3.org/2000/svg">
<path d="M62.699 63.1008L59.1237 41.505C58.7908 39.4939 59.0264 37.4361 59.8053 35.5542L73.6976 1.98819C74.0004 1.25626 73.6567 0.415804 72.9298 0.110897C72.2028 -0.194202 71.3682 0.151857 71.0651 0.883788L57.1729 34.4498C56.1877 36.8303 55.8895 39.4333 56.3107 41.9768L59.8859 63.5726C60.118 64.9758 59.9635 66.4154 59.4389 67.7359L48.1968 96.0308C47.9042 96.767 48.2599 97.6025 48.9911 97.8968C49.1649 97.9669 49.344 98 49.5202 98C50.0862 98 50.6216 97.6585 50.8446 97.0973L62.0868 68.8024C62.8052 66.9938 63.017 65.0223 62.699 63.1008Z" fill="#193840"/>
<path d="M12.7408 28.6513C12.994 28.8503 13.3036 28.9552 13.6184 28.9552C13.7066 28.9552 13.7948 28.9443 13.8827 28.9275C14.5145 31.5802 16.8885 33.5582 19.7145 33.5582C23.0219 33.5582 25.7126 30.8494 25.7126 27.5197C25.7126 27.0059 25.6447 26.4939 25.5167 25.9982C25.8957 25.8709 26.2069 25.5905 26.37 25.2196C26.548 24.8147 26.5307 24.35 26.3227 23.9599C25.004 21.4845 22.4719 19.9467 19.7143 19.9467C15.5666 19.9467 12.1923 23.344 12.1923 27.5197C12.1925 27.9618 12.3948 28.3793 12.7408 28.6513ZM19.7145 30.6873C18.2245 30.6873 16.976 29.6382 16.6524 28.2359L22.7539 26.7003C22.824 26.9648 22.8607 27.2385 22.8607 27.5199C22.8609 29.2664 21.4494 30.6873 19.7145 30.6873ZM19.7145 22.818C20.7509 22.818 21.7373 23.1719 22.5358 23.7957L15.462 25.576C16.1982 23.9505 17.8276 22.818 19.7145 22.818Z" fill="#193840"/>
<path d="M66.575 41.1798C66.3592 40.3107 66.3938 39.4022 66.6752 38.5526L69.162 31.0421C69.411 30.29 69.0072 29.477 68.2601 29.2262C67.5131 28.9755 66.7054 29.382 66.4564 30.1342L63.9696 37.6446C63.5165 39.0131 63.4606 40.4762 63.8081 41.876L68.7468 61.7635C69.1588 63.4228 69.1088 65.163 68.6019 66.7957L61.8759 88.4642C61.6411 89.2208 62.06 90.0261 62.8117 90.2627C62.9534 90.3071 63.0965 90.3283 63.2374 90.3283C63.8446 90.3283 64.4074 89.9348 64.5981 89.3206L71.3241 67.652C71.9872 65.5156 72.0528 63.2386 71.5134 61.0673L66.575 41.1798Z" fill="#193840"/>
<path d="M85.9264 1.89C86.1755 1.13797 85.7717 0.324887 85.0245 0.0741469C84.2777 -0.176402 83.47 0.22995 83.2208 0.982171L72.9205 32.0912C72.5009 33.3583 72.9789 34.7607 74.0827 35.5012L75.6739 36.5691C76.3045 36.9923 76.5591 37.787 76.2929 38.5015L72.5699 48.4961C72.2933 49.2383 72.6671 50.0658 73.4044 50.3443C73.5692 50.4065 73.7384 50.436 73.9048 50.436C74.4822 50.436 75.0256 50.0803 75.24 49.504L78.963 39.5094C79.6969 37.5391 78.9948 35.3475 77.2555 34.1803L75.6644 33.1123C75.6277 33.0878 75.6119 33.0411 75.6258 32.999L85.9264 1.89Z" fill="#193840"/>
<path d="M48.9742 74.9476C48.9277 74.9591 48.9011 74.9379 48.8898 74.9287L40.9035 68.4965C40.2887 68.0012 39.3911 68.1018 38.8993 68.7206C38.4072 69.3397 38.5071 70.2431 39.1219 70.7384L47.1082 77.1706C47.6392 77.5982 48.283 77.8229 48.9436 77.8229C49.1771 77.8229 49.4125 77.795 49.646 77.7379C50.5403 77.5197 51.2685 76.9095 51.644 76.0639L54.545 69.5322C54.7424 69.0882 54.7026 68.5736 54.4399 68.1654C54.177 67.7571 53.7267 67.5108 53.2435 67.5108H49.2619L38.8263 57.0048C37.6935 55.8644 36.1872 55.2362 34.585 55.2362H15.0442V42.8628C15.0442 42.07 14.4058 41.4273 13.6183 41.4273H8.94812V38.1637C8.98082 38.1631 9.01333 38.1612 9.04622 38.1612H30.481V41.4273H25.8107C25.1424 41.4273 24.5636 41.8945 24.4188 42.5514L22.7254 50.2231C22.5546 50.997 23.0392 51.7639 23.8079 51.9358C23.9121 51.9592 24.0161 51.9703 24.1186 51.9703C24.7722 51.9703 25.3616 51.5149 25.5091 50.8458L26.9544 44.2982H32.2174C34.3643 44.2982 36.4134 43.3718 37.8395 41.7565L43.9174 34.8728C46.3757 32.0885 46.6968 28.0142 44.7326 24.8846L66.4572 2.4378C67.0068 1.86991 66.995 0.961116 66.4309 0.407957C65.867 -0.145203 64.9643 -0.133527 64.4147 0.434371L30.6801 35.2899H9.04622C4.05817 35.2899 0 39.3755 0 44.3971V55.1374C0 58.9179 2.7659 62.06 6.3674 62.621C6.18982 63.399 6.09609 64.2018 6.09609 65.0181V96.5641C6.09609 97.3569 6.73452 97.9996 7.52201 97.9996C8.3095 97.9996 8.94793 97.3569 8.94793 96.5641V65.0181C8.94793 62.9804 9.72572 61.0547 11.1381 59.5954L12.2414 58.4556C12.489 60.9234 13.7115 63.1665 15.6847 64.7115L26.135 72.8942L30.9964 86.3532C31.8552 88.7307 34.1203 90.3281 36.6332 90.3281H39.5271C39.9746 90.3281 40.3959 90.1168 40.6655 89.7572C40.9349 89.3975 41.021 88.9314 40.8982 88.4983L35.3446 68.9293C34.9232 67.4449 34.1276 66.0831 33.0431 64.9915L26.2052 58.1075H34.5854C35.4257 58.1075 36.2159 58.4369 36.8102 59.0352L47.6634 69.9615C47.9307 70.2308 48.2934 70.382 48.6716 70.382H51.0441L49.041 74.8923C49.0349 74.9051 49.021 74.9363 48.9742 74.9476ZM41.7859 32.9655L35.7079 39.8492C35.0746 40.5666 34.2428 41.0636 33.3329 41.2893V36.7255C33.3329 36.7054 33.3308 36.686 33.3298 36.6661L42.6536 27.0323C43.5533 28.9806 43.2411 31.3171 41.7859 32.9655ZM9.09565 57.5918C8.43726 58.2721 7.88229 59.0277 7.43303 59.8368C4.89889 59.7886 2.85184 57.6998 2.85184 55.1372V44.397C2.85184 42.0329 4.1654 39.9719 6.09609 38.9145V53.6029C6.09609 54.3957 6.73452 55.0385 7.52201 55.0385C8.3095 55.0385 8.94793 54.3957 8.94793 53.6029V44.2982H12.1922V54.3921L9.09565 57.5918ZM31.0263 67.0214C31.7689 67.769 32.3138 68.7013 32.6022 69.7177L37.6367 87.4569H36.6332C35.3151 87.4569 34.1268 86.6191 33.6764 85.3719L28.6745 71.5242C28.5828 71.2702 28.4216 71.0476 28.2098 70.8816L17.4354 62.4449C16.0697 61.3755 15.23 59.818 15.0731 58.1069H22.1717L31.0263 67.0214Z" fill="#193840"/>
</svg>
