<svg width="68" height="83" viewBox="0 0 68 83" fill="none" xmlns="http://www.w3.org/2000/svg">
<path d="M6.47619 0C2.90543 0 0 2.9091 0 6.48438V14.5898C0 15.4852 0.724776 16.2109 1.61905 16.2109H9.71428V74.5475C9.71428 78.953 13.0637 83 17.8095 83H56.6667C62.9158 83 68 77.9094 68 71.6523C68 70.7569 67.2752 70.0312 66.381 70.0312H61.5238V8.10547C61.5238 3.63606 57.8923 0 53.4286 0H6.47619ZM6.47619 3.24218C8.24639 3.24218 9.71428 4.67141 9.71428 6.48438V12.9688H3.23809V6.48438C3.23809 4.69674 4.69081 3.24218 6.47619 3.24218ZM12.0866 3.24218H53.4286C56.107 3.24218 58.2857 5.4237 58.2857 8.10547V70.0312H24.2857C23.3914 70.0312 22.6667 70.7569 22.6667 71.6523V74.8945C22.6667 77.5763 20.4879 79.7578 17.8095 79.7578C14.9066 79.7578 12.9524 77.2426 12.9524 74.5475V6.48438C12.9524 5.31541 12.6412 4.20471 12.0866 3.24218ZM21.0476 10.6992C20.1533 10.6992 19.4286 11.4249 19.4286 12.3203C19.4286 13.2157 20.1533 13.9414 21.0476 13.9414H50.1905C51.0847 13.9414 51.8095 13.2157 51.8095 12.3203C51.8095 11.4249 51.0847 10.6992 50.1905 10.6992H21.0476ZM21.0476 20.4258C20.154 20.4258 19.4286 21.1521 19.4286 22.0469C19.4286 22.9416 20.154 23.668 21.0476 23.668C21.9413 23.668 22.6667 22.9416 22.6667 22.0469C22.6667 21.1521 21.9413 20.4258 21.0476 20.4258ZM27.5238 20.4258C26.6295 20.4258 25.9048 21.1515 25.9048 22.0469C25.9048 22.9423 26.6295 23.668 27.5238 23.668H50.1905C51.0847 23.668 51.8095 22.9423 51.8095 22.0469C51.8095 21.1515 51.0847 20.4258 50.1905 20.4258H27.5238ZM21.0476 30.1523C20.154 30.1523 19.4286 30.8787 19.4286 31.7734C19.4286 32.6682 20.154 33.3945 21.0476 33.3945C21.9413 33.3945 22.6667 32.6682 22.6667 31.7734C22.6667 30.8787 21.9413 30.1523 21.0476 30.1523ZM27.5238 30.1523C26.6295 30.1523 25.9048 30.878 25.9048 31.7734C25.9048 32.6688 26.6295 33.3945 27.5238 33.3945H50.1905C51.0847 33.3945 51.8095 32.6688 51.8095 31.7734C51.8095 30.878 51.0847 30.1523 50.1905 30.1523H27.5238ZM45.3333 36.6367C39.9766 36.6367 35.619 40.9997 35.619 46.3633C35.619 49.1698 36.7916 51.7648 38.8571 53.6075V64.1953C38.8571 64.7931 39.186 65.3427 39.7122 65.6245C40.2384 65.907 40.8778 65.8759 41.3743 65.5441L45.3333 62.9016L49.2924 65.5441C49.7901 65.8766 50.4289 65.9063 50.9545 65.6245C51.4807 65.3427 51.8095 64.7931 51.8095 64.1953V53.6075C53.8757 51.7642 55.0476 49.1692 55.0476 46.3633C55.0476 41.0004 50.6901 36.6367 45.3333 36.6367ZM21.0476 39.8789C20.1533 39.8789 19.4286 40.6046 19.4286 41.5C19.4286 42.3954 20.1533 43.1211 21.0476 43.1211H30.7619C31.6562 43.1211 32.381 42.3954 32.381 41.5C32.381 40.6046 31.6562 39.8789 30.7619 39.8789H21.0476ZM45.3333 39.8789C48.9041 39.8789 51.8095 42.788 51.8095 46.3633C51.8095 50.0228 48.8333 52.8477 45.3333 52.8477C41.8321 52.8477 38.8571 50.0247 38.8571 46.3633C38.8571 42.788 41.7626 39.8789 45.3333 39.8789ZM21.0476 49.6055C20.1533 49.6055 19.4286 50.3312 19.4286 51.2266C19.4286 52.122 20.1533 52.8477 21.0476 52.8477H30.7619C31.6562 52.8477 32.381 52.122 32.381 51.2266C32.381 50.3312 31.6562 49.6055 30.7619 49.6055H21.0476ZM42.0952 55.5364C43.1242 55.9005 44.2139 56.0898 45.3333 56.0898C46.4528 56.0898 47.5424 55.9005 48.5714 55.5364V61.1665L46.2314 59.6043C45.6875 59.2415 44.9792 59.2415 44.4353 59.6043L42.0952 61.1665V55.5364ZM21.0476 59.332C20.1533 59.332 19.4286 60.0577 19.4286 60.9531C19.4286 61.8485 20.1533 62.5742 21.0476 62.5742H30.7619C31.6562 62.5742 32.381 61.8485 32.381 60.9531C32.381 60.0577 31.6562 59.332 30.7619 59.332H21.0476ZM25.9048 73.257H64.5994C63.8474 76.9526 60.5758 79.7578 56.6667 79.7578H24.2819C25.3001 78.402 25.9048 76.7012 25.9048 74.8781V73.257Z" fill="#193840"/>
</svg>
