<svg width="77" height="79" viewBox="0 0 77 79" fill="none" xmlns="http://www.w3.org/2000/svg">
<path d="M76.5545 76.3748L64.2371 63.9203V47.9041C64.2371 47.0519 63.5428 46.3611 62.6863 46.3611C61.8298 46.3611 61.1356 47.0519 61.1356 47.9041V60.7843L57.5626 57.1718V18.9231H61.1356V34.0482C61.1356 34.9004 61.8298 35.5912 62.6863 35.5912C63.5428 35.5912 64.2371 34.9004 64.2371 34.0482V17.3802C64.2371 17.1752 64.196 16.9723 64.1164 16.7835L57.4422 0.946303C57.2005 0.37309 56.6368 0 56.0124 0H56.0122C55.3876 0 54.8239 0.372936 54.5823 0.945994L47.9035 16.7832C47.8238 16.9722 47.7827 17.1752 47.7827 17.3802V47.2826L22.6841 21.9048V1.54297C22.6841 0.690787 21.9898 0 21.1333 0H1.55075C0.694271 0 0 0.690787 0 1.54297V77.457C0 78.3092 0.694271 79 1.55075 79H75.4492C76.0741 79 76.638 78.6268 76.8794 78.0532C77.121 77.4797 76.9929 76.8179 76.5545 76.3748ZM19.5826 75.9141H3.1015V71.4074H8.07972C8.9362 71.4074 9.63048 70.7166 9.63048 69.8644C9.63048 69.0122 8.9362 68.3214 8.07972 68.3214H3.1015V63.8147H11.3399C12.1963 63.8147 12.8906 63.1239 12.8906 62.2718C12.8906 61.4196 12.1963 60.7288 11.3399 60.7288H3.1015V56.2264H8.07972C8.9362 56.2264 9.63048 55.5356 9.63048 54.6834C9.63048 53.8312 8.9362 53.1405 8.07972 53.1405H3.1015V48.6338H11.3399C12.1963 48.6338 12.8906 47.943 12.8906 47.0908C12.8906 46.2386 12.1963 45.5478 11.3399 45.5478H3.1015V41.0411H8.07972C8.9362 41.0411 9.63048 40.3503 9.63048 39.4981C9.63048 38.646 8.9362 37.9552 8.07972 37.9552H3.1015V33.4528H11.3399C12.1963 33.4528 12.8906 32.762 12.8906 31.9098C12.8906 31.0576 12.1963 30.3669 11.3399 30.3669H3.1015V25.8602H8.07972C8.9362 25.8602 9.63048 25.1694 9.63048 24.3172C9.63048 23.465 8.9362 22.7742 8.07972 22.7742H3.1015V18.2675H11.3399C12.1963 18.2675 12.8906 17.5767 12.8906 16.7245C12.8906 15.8724 12.1963 15.1816 11.3399 15.1816H3.1015V10.6792H8.07972C8.9362 10.6792 9.63048 9.98841 9.63048 9.13623C9.63048 8.28405 8.9362 7.59326 8.07972 7.59326H3.1015V3.08594H19.5826V75.9141ZM56.0116 5.53201L60.3546 15.8372H51.6658L56.0116 5.53201ZM50.884 18.9231H54.4613V54.0357L50.884 50.4185V18.9231ZM62.3252 75.9141V74.3254C62.3252 73.4732 61.6309 72.7825 60.7744 72.7825C59.9179 72.7825 59.2237 73.4732 59.2237 74.3254V75.9141H54.1045V72.6066C54.1045 71.7544 53.4102 71.0636 52.5537 71.0636C51.6972 71.0636 51.003 71.7544 51.003 72.6066V75.9141H45.8793V74.3254C45.8793 73.4732 45.185 72.7825 44.3285 72.7825C43.472 72.7825 42.7778 73.4732 42.7778 74.3254V75.9141H37.6586V72.6066C37.6586 71.7544 36.9643 71.0636 36.1078 71.0636C35.2514 71.0636 34.5571 71.7544 34.5571 72.6066V75.9141H29.4379V74.3254C29.4379 73.4732 28.7436 72.7825 27.8872 72.7825C27.0307 72.7825 26.3364 73.4732 26.3364 74.3254V75.9141H22.6842V26.3047L71.7475 75.9141H62.3252Z" fill="#193840"/>
<path d="M32.3234 67.8908H48.7781C49.4031 67.8908 49.9669 67.5175 50.2084 66.944C50.45 66.3705 50.3217 65.7089 49.8835 65.2656L33.4288 48.628C32.9873 48.1817 32.3181 48.0448 31.7358 48.2824C31.1532 48.5197 30.7728 49.084 30.7728 49.7103V66.3478C30.7726 67.2 31.4669 67.8908 32.3234 67.8908ZM33.8741 53.4782L45.0765 64.805H33.8741V53.4782Z" fill="#193840"/>
<path d="M62.6865 39.4289C61.83 39.4289 61.1357 40.124 61.1357 40.9762C61.1357 41.8283 61.83 42.5191 62.6865 42.5191C63.543 42.5191 64.2372 41.8283 64.2372 40.9762V40.9674C64.2372 40.1152 63.543 39.4289 62.6865 39.4289Z" fill="#193840"/>
</svg>
