<svg width="91" height="79" viewBox="0 0 91 79" fill="none" xmlns="http://www.w3.org/2000/svg">
<path d="M79.625 35.9732H73.9375V28.2143C73.9375 27.466 73.6379 26.7484 73.1046 26.2192C72.5713 25.6901 71.848 25.3929 71.0938 25.3929H54.0312C53.277 25.3929 52.5537 25.6901 52.0204 26.2192C51.4871 26.7484 51.1875 27.466 51.1875 28.2143V35.9732H48.3438V28.2143C48.3438 27.466 48.0441 26.7484 47.5108 26.2192C46.9775 25.6901 46.2542 25.3929 45.5 25.3929H40.5234V19.3587C40.9546 19.1131 41.313 18.7592 41.5626 18.3327C41.8122 17.9061 41.9442 17.4218 41.9453 16.9286V12.6964C42.6995 12.6964 43.4228 12.3992 43.9562 11.8701C44.4895 11.3409 44.7891 10.6233 44.7891 9.875V2.82143C44.7891 2.07314 44.4895 1.3555 43.9562 0.826377C43.4228 0.297257 42.6995 0 41.9453 0H30.5703C29.8835 0.00217867 29.221 0.252989 28.7073 0.705357H7.10938C6.35517 0.705357 5.63185 1.00261 5.09854 1.53173C4.56523 2.06085 4.26562 2.7785 4.26562 3.52679V26.198C3.65634 26.3529 3.11621 26.7043 2.73014 27.197C2.34407 27.6896 2.13396 28.2956 2.13281 28.9196V35.9732H1.42188C1.04477 35.9732 0.683111 36.1218 0.416458 36.3864C0.149804 36.651 0 37.0098 0 37.3839C0 37.7581 0.149804 38.1169 0.416458 38.3815C0.683111 38.646 1.04477 38.7946 1.42188 38.7946H79.625C81.8876 38.7946 84.0576 39.6864 85.6575 41.2738C87.2574 42.8611 88.1562 45.0141 88.1562 47.2589C88.1562 49.5038 87.2574 51.6567 85.6575 53.2441C84.0576 54.8314 81.8876 55.7232 79.625 55.7232H1.42188C1.04477 55.7232 0.683111 55.8718 0.416458 56.1364C0.149804 56.401 0 56.7598 0 57.1339C0 57.5081 0.149804 57.8669 0.416458 58.1315C0.683111 58.396 1.04477 58.5446 1.42188 58.5446H4.97656V77.5893C4.97656 77.9634 5.12637 78.3223 5.39302 78.5868C5.65967 78.8514 6.02133 79 6.39844 79C6.77554 79 7.1372 78.8514 7.40386 78.5868C7.67051 78.3223 7.82031 77.9634 7.82031 77.5893V71.9464H78.9141V77.5893C78.9141 77.9634 79.0639 78.3223 79.3305 78.5868C79.5972 78.8514 79.9588 79 80.3359 79C80.713 79 81.0747 78.8514 81.3414 78.5868C81.608 78.3223 81.7578 77.9634 81.7578 77.5893V58.3388C84.5388 57.8127 87.0221 56.2764 88.7219 54.0302C90.4218 51.784 91.2161 48.9895 90.9494 46.1931C90.6827 43.3967 89.3743 40.7995 87.28 38.9095C85.1857 37.0194 82.4561 35.9724 79.625 35.9732ZM30.5703 2.82143H41.9453V9.875H30.5703V2.82143ZM33.4141 16.9286V12.6964H39.1016V16.9286H33.4141ZM37.6797 19.75V25.3929H34.8359V19.75H37.6797ZM7.10938 3.52679H27.7266V9.16964H12.7969V26.0982H7.10938V3.52679ZM14.9297 35.9732H4.97656V28.9196H14.9297V35.9732ZM25.5938 28.2143V35.9732H17.7734V28.9196C17.7723 28.2956 17.5622 27.6896 17.1761 27.197C16.7901 26.7043 16.2499 26.3529 15.6406 26.198V11.9911H28.7073C29.221 12.4434 29.8835 12.6942 30.5703 12.6964V16.9286C30.5714 17.4218 30.7034 17.9061 30.953 18.3327C31.2026 18.7592 31.561 19.1131 31.9922 19.3587V25.3929H28.4375C27.6833 25.3929 26.96 25.6901 26.4267 26.2192C25.8934 26.7484 25.5938 27.466 25.5938 28.2143ZM45.5 35.9732H28.4375V28.2143H45.5V35.9732ZM71.0938 35.9732H54.0312V28.2143H71.0938V35.9732ZM78.9141 69.125H7.82031V58.5446H78.9141V69.125Z" fill="#193840"/>
<path d="M85.3125 47.2589C85.3125 46.1429 84.9789 45.0519 84.354 44.1239C83.729 43.196 82.8408 42.4727 81.8015 42.0456C80.7623 41.6185 79.6187 41.5068 78.5154 41.7245C77.4122 41.9422 76.3987 42.4797 75.6033 43.2688C74.8079 44.058 74.2662 45.0635 74.0468 46.1581C73.8273 47.2527 73.94 48.3873 74.3704 49.4184C74.8009 50.4495 75.5299 51.3307 76.4652 51.9508C77.4005 52.5708 78.5001 52.9018 79.625 52.9018C81.1329 52.9001 82.5786 52.3051 83.6448 51.2472C84.7111 50.1893 85.3108 48.755 85.3125 47.2589ZM76.7812 47.2589C76.7812 46.7009 76.948 46.1554 77.2605 45.6914C77.573 45.2274 78.0171 44.8658 78.5368 44.6523C79.0564 44.4387 79.6282 44.3828 80.1798 44.4917C80.7314 44.6006 81.2381 44.8693 81.6358 45.2639C82.0335 45.6585 82.3044 46.1612 82.4141 46.7085C82.5238 47.2558 82.4675 47.8231 82.2523 48.3386C82.037 48.8542 81.6726 49.2948 81.2049 49.6049C80.7373 49.9149 80.1874 50.0804 79.625 50.0804C78.8708 50.0804 78.1475 49.7831 77.6142 49.254C77.0809 48.7249 76.7812 48.0072 76.7812 47.2589Z" fill="#193840"/>
<path d="M71.0938 47.2589C71.0938 46.2824 70.8019 45.3278 70.2551 44.5158C69.7082 43.7038 68.931 43.071 68.0216 42.6973C67.1123 42.3236 66.1117 42.2258 65.1463 42.4163C64.181 42.6068 63.2942 43.0771 62.5982 43.7676C61.9023 44.4581 61.4283 45.3379 61.2363 46.2957C61.0442 47.2534 61.1428 48.2462 61.5194 49.1484C61.8961 50.0506 62.534 50.8218 63.3524 51.3643C64.1708 51.9068 65.1329 52.1964 66.1172 52.1964C67.4366 52.1949 68.7015 51.6743 69.6345 50.7486C70.5675 49.823 71.0923 48.568 71.0938 47.2589ZM63.9844 47.2589C63.9844 46.8404 64.1095 46.4313 64.3438 46.0833C64.5782 45.7353 64.9113 45.4641 65.301 45.3039C65.6907 45.1438 66.1196 45.1019 66.5333 45.1835C66.947 45.2652 67.327 45.4667 67.6253 45.7626C67.9236 46.0586 68.1267 46.4356 68.209 46.8461C68.2913 47.2566 68.2491 47.682 68.0877 48.0687C67.9262 48.4554 67.6529 48.7859 67.3021 49.0184C66.9514 49.2509 66.539 49.375 66.1172 49.375C65.5515 49.375 65.009 49.1521 64.6091 48.7552C64.2091 48.3584 63.9844 47.8201 63.9844 47.2589Z" fill="#193840"/>
<path d="M58.2969 47.2589C58.2969 46.2824 58.005 45.3278 57.4582 44.5158C56.9113 43.7038 56.1341 43.071 55.2248 42.6973C54.3154 42.3236 53.3148 42.2258 52.3494 42.4163C51.3841 42.6068 50.4973 43.0771 49.8014 43.7676C49.1054 44.4581 48.6314 45.3379 48.4394 46.2957C48.2474 47.2534 48.3459 48.2462 48.7226 49.1484C49.0992 50.0506 49.7371 50.8218 50.5555 51.3643C51.3739 51.9068 52.336 52.1964 53.3203 52.1964C54.6397 52.1949 55.9047 51.6743 56.8376 50.7486C57.7706 49.823 58.2954 48.568 58.2969 47.2589ZM51.1875 47.2589C51.1875 46.8404 51.3126 46.4313 51.5469 46.0833C51.7813 45.7353 52.1144 45.4641 52.5041 45.3039C52.8938 45.1438 53.3227 45.1019 53.7364 45.1835C54.1501 45.2652 54.5302 45.4667 54.8284 45.7626C55.1267 46.0586 55.3298 46.4356 55.4121 46.8461C55.4944 47.2566 55.4522 47.682 55.2908 48.0687C55.1293 48.4554 54.856 48.7859 54.5052 49.0184C54.1545 49.2509 53.7421 49.375 53.3203 49.375C52.7547 49.375 52.2122 49.1521 51.8122 48.7552C51.4122 48.3584 51.1875 47.8201 51.1875 47.2589Z" fill="#193840"/>
<path d="M45.5 47.2589C45.5 46.2824 45.2081 45.3278 44.6613 44.5158C44.1145 43.7038 43.3372 43.071 42.4279 42.6973C41.5185 42.3236 40.5179 42.2258 39.5526 42.4163C38.5872 42.6068 37.7005 43.0771 37.0045 43.7676C36.3085 44.4581 35.8345 45.3379 35.6425 46.2957C35.4505 47.2534 35.549 48.2462 35.9257 49.1484C36.3024 50.0506 36.9402 50.8218 37.7586 51.3643C38.577 51.9068 39.5392 52.1964 40.5234 52.1964C41.8428 52.1949 43.1078 51.6743 44.0408 50.7486C44.9737 49.823 45.4985 48.568 45.5 47.2589ZM38.3906 47.2589C38.3906 46.8404 38.5157 46.4313 38.7501 46.0833C38.9844 45.7353 39.3175 45.4641 39.7072 45.3039C40.097 45.1438 40.5258 45.1019 40.9395 45.1835C41.3533 45.2652 41.7333 45.4667 42.0316 45.7626C42.3298 46.0586 42.533 46.4356 42.6153 46.8461C42.6976 47.2566 42.6553 47.682 42.4939 48.0687C42.3325 48.4554 42.0591 48.7859 41.7084 49.0184C41.3576 49.2509 40.9453 49.375 40.5234 49.375C39.9578 49.375 39.4153 49.1521 39.0153 48.7552C38.6153 48.3584 38.3906 47.8201 38.3906 47.2589Z" fill="#193840"/>
<path d="M32.7031 47.2589C32.7031 46.2824 32.4113 45.3278 31.8644 44.5158C31.3176 43.7038 30.5404 43.071 29.631 42.6973C28.7217 42.3236 27.721 42.2258 26.7557 42.4163C25.7903 42.6068 24.9036 43.0771 24.2076 43.7676C23.5116 44.4581 23.0376 45.3379 22.8456 46.2957C22.6536 47.2534 22.7522 48.2462 23.1288 49.1484C23.5055 50.0506 24.1433 50.8218 24.9617 51.3643C25.7801 51.9068 26.7423 52.1964 27.7266 52.1964C29.046 52.1949 30.3109 51.6743 31.2439 50.7486C32.1768 49.823 32.7016 48.568 32.7031 47.2589ZM25.5938 47.2589C25.5938 46.8404 25.7188 46.4313 25.9532 46.0833C26.1875 45.7353 26.5206 45.4641 26.9104 45.3039C27.3001 45.1438 27.7289 45.1019 28.1427 45.1835C28.5564 45.2652 28.9364 45.4667 29.2347 45.7626C29.533 46.0586 29.7361 46.4356 29.8184 46.8461C29.9007 47.2566 29.8584 47.682 29.697 48.0687C29.5356 48.4554 29.2622 48.7859 28.9115 49.0184C28.5607 49.2509 28.1484 49.375 27.7266 49.375C27.1609 49.375 26.6184 49.1521 26.2184 48.7552C25.8185 48.3584 25.5938 47.8201 25.5938 47.2589Z" fill="#193840"/>
<path d="M19.9062 47.2589C19.9062 46.2824 19.6144 45.3278 19.0675 44.5158C18.5207 43.7038 17.7435 43.071 16.8341 42.6973C15.9248 42.3236 14.9242 42.2258 13.9588 42.4163C12.9934 42.6068 12.1067 43.0771 11.4107 43.7676C10.7147 44.4581 10.2408 45.3379 10.0487 46.2957C9.85672 47.2534 9.95528 48.2462 10.3319 49.1484C10.7086 50.0506 11.3465 50.8218 12.1649 51.3643C12.9832 51.9068 13.9454 52.1964 14.9297 52.1964C16.2491 52.1949 17.514 51.6743 18.447 50.7486C19.38 49.823 19.9048 48.568 19.9062 47.2589ZM12.7969 47.2589C12.7969 46.8404 12.922 46.4313 13.1563 46.0833C13.3907 45.7353 13.7238 45.4641 14.1135 45.3039C14.5032 45.1438 14.9321 45.1019 15.3458 45.1835C15.7595 45.2652 16.1395 45.4667 16.4378 45.7626C16.7361 46.0586 16.9392 46.4356 17.0215 46.8461C17.1038 47.2566 17.0616 47.682 16.9001 48.0687C16.7387 48.4554 16.4654 48.7859 16.1146 49.0184C15.7639 49.2509 15.3515 49.375 14.9297 49.375C14.364 49.375 13.8215 49.1521 13.4216 48.7552C13.0216 48.3584 12.7969 47.8201 12.7969 47.2589Z" fill="#193840"/>
</svg>
