<svg width="55" height="54" viewBox="0 0 55 54" fill="none" xmlns="http://www.w3.org/2000/svg">
<path d="M43.9588 53.25H11.0873C8.40193 53.2453 5.82788 52.1765 3.92903 50.2776C2.03018 48.3788 0.961347 45.8047 0.956665 43.1194V10.2479C0.961347 7.56254 2.03018 4.98849 3.92903 3.08964C5.82788 1.19079 8.40193 0.121956 11.0873 0.117275H43.9588C46.6441 0.121956 49.2182 1.19079 51.117 3.08964C53.0159 4.98849 54.0847 7.56254 54.0894 10.2479V43.1194C54.0847 45.8047 53.0159 48.3788 51.117 50.2776C49.2182 52.1765 46.6441 53.2453 43.9588 53.25ZM50.5472 10.2479C50.5425 8.50198 49.8469 6.8289 48.6123 5.59433C47.3778 4.35977 45.7047 3.66413 43.9588 3.65945H11.0873C9.34137 3.66413 7.66829 4.35977 6.43372 5.59433C5.19916 6.8289 4.50352 8.50198 4.49885 10.2479V43.1194C4.50352 44.8653 5.19916 46.5384 6.43372 47.7729C7.66829 49.0075 9.34137 49.7031 11.0873 49.7078H43.9588C45.7047 49.7031 47.3778 49.0075 48.6123 47.7729C49.8469 46.5384 50.5425 44.8653 50.5472 43.1194V10.2479Z" fill="#26B636"/>
<path d="M43.4628 23.4248C42.9931 23.4248 42.5426 23.2382 42.2105 22.9061C41.8783 22.5739 41.6918 22.1235 41.6918 21.6537V15.0121L15.8515 40.8524H22.4931C22.9629 40.8524 23.4133 41.039 23.7455 41.3711C24.0776 41.7032 24.2642 42.1537 24.2642 42.6235C24.2642 43.0932 24.0776 43.5437 23.7455 43.8758C23.4133 44.2079 22.9629 44.3945 22.4931 44.3945H11.0342C10.7101 44.3945 10.3992 44.2658 10.1701 44.0366C9.94087 43.8074 9.81212 43.4966 9.81212 43.1725V31.7135C9.81212 31.2438 9.99872 30.7933 10.3309 30.4612C10.663 30.129 11.1135 29.9424 11.5832 29.9424C12.0529 29.9424 12.5034 30.129 12.8356 30.4612C13.1677 30.7933 13.3543 31.2438 13.3543 31.7135V38.3551L39.1945 12.5149H32.5529C32.0832 12.5149 31.6327 12.3283 31.3006 11.9962C30.9684 11.664 30.7818 11.2135 30.7818 10.7438C30.7818 10.2741 30.9684 9.82361 31.3006 9.49147C31.6327 9.15932 32.0832 8.97273 32.5529 8.97273H44.0119C44.336 8.97273 44.6468 9.10148 44.876 9.33066C45.1052 9.55984 45.2339 9.87067 45.2339 10.1948V21.6537C45.2339 22.1235 45.0473 22.5739 44.7152 22.9061C44.3831 23.2382 43.9326 23.4248 43.4628 23.4248Z" fill="#26B636"/>
</svg>
