<svg width="53" height="53" viewBox="0 0 53 53" fill="none" xmlns="http://www.w3.org/2000/svg">
<path d="M39.9411 0.684004C39.2936 0.373197 38.5388 0.461999 37.9838 0.906008L23.2205 12.7093C22.4212 13.3457 22.2954 14.5112 22.9319 15.3104C23.572 16.1133 24.7338 16.2428 25.533 15.6027L37.2882 6.20082V28.9193C37.2882 29.9442 38.117 30.7693 39.1382 30.7693C40.1594 30.7693 40.9882 29.9405 40.9882 28.9193V2.35274C40.9882 1.64232 40.5812 0.99481 39.9411 0.684004Z" fill="#26B636"/>
<path d="M51.5482 49.1476L3.44725 1.04291C2.72574 0.321396 1.55281 0.321396 0.831297 1.04291C0.109782 1.76443 0.109782 2.93735 0.831297 3.65887L12.4717 15.303H11.3876C9.31187 15.303 7.68754 16.9273 7.68754 19.0031V33.8034C7.68754 35.8791 9.31187 37.5035 11.3876 37.5035H19.9866L37.9801 51.9005C38.3168 52.1669 38.7275 52.3038 39.1382 52.3038C39.4083 52.3038 39.6821 52.2446 39.9411 52.1225C40.5812 51.8117 40.9882 51.1641 40.9882 50.4537V43.8195L48.9286 51.7599C49.2912 52.1225 49.7648 52.3038 50.2384 52.3038C50.712 52.3038 51.1856 52.1225 51.5482 51.7636C52.2698 51.042 52.2698 49.8691 51.5482 49.1476ZM18.7878 33.8034H11.3876V19.0031H16.1718L18.7878 21.619V33.8034ZM37.2882 46.6019L22.4878 34.7617V25.3191L37.2882 40.1194V46.6019Z" fill="#26B636"/>
</svg>
