<svg width="51" height="51" viewBox="0 0 51 51" fill="none" xmlns="http://www.w3.org/2000/svg">
<path d="M39.469 37.5884V17.5923C39.469 16.7234 40.1734 16.019 41.0423 16.019C41.9112 16.019 42.6156 16.7234 42.6156 17.5923V37.5884C44.0034 38.1966 44.9756 39.5827 44.9756 41.1923C44.9756 43.3612 43.2111 45.1257 41.0423 45.1257C38.8735 45.1257 37.109 43.3612 37.109 41.1923C37.109 39.5827 38.0812 38.1966 39.469 37.5884Z" fill="#26B636"/>
<path d="M34.749 34.1552V6.57898C34.749 3.1088 37.5721 0.285645 41.0423 0.285645C44.5125 0.285645 47.3356 3.1088 47.3356 6.57898V34.1552C49.345 35.9454 50.4823 38.4679 50.4823 41.1923C50.4823 46.3976 46.2476 50.6323 41.0423 50.6323C35.837 50.6323 31.6023 46.3976 31.6023 41.1923C31.6023 38.4679 32.7396 35.9454 34.749 34.1552ZM41.0423 47.4857C44.5125 47.4857 47.3356 44.6625 47.3356 41.1923C47.3356 39.1945 46.4178 37.3591 44.8173 36.1569C44.4217 35.8597 44.189 35.3937 44.189 34.899V6.57898C44.189 4.84389 42.7774 3.43231 41.0423 3.43231C39.3072 3.43231 37.8956 4.84389 37.8956 6.57898V34.8989C37.8956 35.3937 37.6629 35.8597 37.2673 36.1568C35.6668 37.3591 34.749 39.1945 34.749 41.1923C34.749 44.6625 37.5721 47.4857 41.0423 47.4857Z" fill="#26B636"/>
<path d="M15.869 8.15231C20.2066 8.15231 23.7356 11.6813 23.7356 16.019C23.7356 20.3567 20.2066 23.8857 15.869 23.8857C11.5313 23.8857 8.00229 20.3567 8.00229 16.019C8.00229 11.6813 11.5313 8.15231 15.869 8.15231ZM15.869 20.739C18.4715 20.739 20.589 18.6216 20.589 16.019C20.589 13.4164 18.4715 11.299 15.869 11.299C13.2664 11.299 11.149 13.4164 11.149 16.019C11.149 18.6216 13.2664 20.739 15.869 20.739Z" fill="#26B636"/>
<path d="M15.869 5.49731C15.0001 5.49731 14.2956 4.79285 14.2956 3.92398V1.85898C14.2956 0.990105 15.0001 0.285645 15.869 0.285645C16.7378 0.285645 17.4423 0.990105 17.4423 1.85898V3.92398C17.4423 4.79285 16.7378 5.49731 15.869 5.49731Z" fill="#26B636"/>
<path d="M15.869 26.5407C16.7378 26.5407 17.4423 27.2451 17.4423 28.114V30.179C17.4423 31.0479 16.7378 31.7523 15.869 31.7523C15.0001 31.7523 14.2956 31.0479 14.2956 30.179V28.114C14.2956 27.2451 15.0001 26.5407 15.869 26.5407Z" fill="#26B636"/>
<path d="M26.3906 16.019C26.3906 15.1501 27.0951 14.4456 27.964 14.4456H30.029C30.8978 14.4456 31.6023 15.1501 31.6023 16.019C31.6023 16.8879 30.8978 17.5923 30.029 17.5923H27.964C27.0951 17.5923 26.3906 16.8879 26.3906 16.019Z" fill="#26B636"/>
<path d="M1.70895 14.4456H3.77396C4.64283 14.4456 5.34729 15.1501 5.34729 16.019C5.34729 16.8879 4.64283 17.5923 3.77396 17.5923H1.70895C0.84008 17.5923 0.13562 16.8879 0.13562 16.019C0.13562 15.1501 0.84008 14.4456 1.70895 14.4456Z" fill="#26B636"/>
<path d="M25.5637 8.54919C24.9495 9.16357 23.9531 9.16367 23.3388 8.54919C22.7243 7.9348 22.7243 6.93858 23.3388 6.3242L24.7691 4.89384C25.3835 4.27936 26.3797 4.27936 26.9941 4.89384C27.6086 5.50823 27.6086 6.50444 26.9941 7.11883L25.5637 8.54919Z" fill="#26B636"/>
<path d="M6.17417 23.4888C6.78856 22.8743 7.78477 22.8743 8.39916 23.4888C9.01365 24.1032 9.01365 25.0994 8.39916 25.7138L6.9688 27.1441C6.66161 27.4514 6.25894 27.605 5.85636 27.605C4.4673 27.605 3.74996 25.9131 4.74392 24.9192L6.17417 23.4888Z" fill="#26B636"/>
<path d="M25.5637 23.4888L26.9941 24.9191C27.6086 25.5335 27.6086 26.5297 26.9941 27.1441C26.3798 27.7585 25.3835 27.7586 24.7691 27.1441L23.3388 25.7138C22.7243 25.0994 22.7243 24.1032 23.3388 23.4888C23.9531 22.8743 24.9494 22.8743 25.5637 23.4888Z" fill="#26B636"/>
<path d="M7.28672 9.01007C6.88404 9.01007 6.48146 8.85648 6.17427 8.54919L4.74392 7.11883C4.12943 6.50444 4.12943 5.50823 4.74392 4.89384C5.3583 4.27936 6.35452 4.27936 6.9689 4.89384L8.39926 6.3242C9.39331 7.31825 8.67567 9.01007 7.28672 9.01007Z" fill="#26B636"/>
</svg>
