<svg width="99" height="96" viewBox="0 0 99 96" fill="none" xmlns="http://www.w3.org/2000/svg">
<path d="M95.33 78.6046L77 60.7584C80.8342 54.541 82.8594 47.4311 82.86 40.1854C82.8494 29.524 78.4777 19.3028 70.7054 11.7677C62.9332 4.23256 52.3963 -4.96426e-06 41.41 0C38.3823 0.000794294 35.364 0.326245 32.41 0.970427C32.0833 1.04159 31.75 1.11923 31.41 1.20333C22.4483 3.37448 14.4907 8.38824 8.80018 15.4488C3.10969 22.5093 0.0124317 31.2121 2.18517e-05 40.1757C-0.00947871 49.1469 3.07922 57.8625 8.77281 64.9304C14.4664 71.9983 22.4364 77.0109 31.41 79.1674C31.7367 79.258 32.07 79.3356 32.41 79.4003C35.364 80.0445 38.3823 80.37 41.41 80.3708C48.6362 80.3792 55.7374 78.5418 62 75.0431L80.48 93.0154C82.4492 94.9264 85.1201 96 87.905 96C90.6899 96 93.3608 94.9264 95.33 93.0154C97.2992 91.1044 98.4055 88.5126 98.4055 85.81C98.4055 83.1074 97.2992 80.5156 95.33 78.6046ZM72.81 40.1854C72.8119 43.4852 72.2579 46.7632 71.17 49.8896C70.7307 51.165 70.2028 52.41 69.59 53.6161C66.4027 59.878 61.1121 64.8993 54.59 67.8522C50.4689 69.7038 45.9813 70.6609 41.44 70.6568C38.3924 70.6586 35.3607 70.2303 32.44 69.3855L31.44 69.075C25.1991 67.0447 19.7725 63.1642 15.9258 57.9808C12.079 52.7975 10.0063 46.573 10 40.1854C10.0066 33.8007 12.0757 27.5787 15.9163 22.3947C19.7568 17.2107 25.1755 13.3257 31.41 11.2861L32.41 10.9755C35.3307 10.1307 38.3624 9.70247 41.41 9.70427C49.7354 9.71198 57.7175 12.9248 63.6044 18.6376C69.4913 24.3505 72.802 32.0965 72.81 40.1757V40.1854Z" fill="white" fill-opacity="0.8"/>
<path d="M41.4099 19.2823V19.5831C41.4233 20.6642 41.8143 21.709 42.5192 22.5463C43.224 23.3837 44.2009 23.9641 45.2899 24.1926C48.3485 24.9013 51.1446 26.4194 53.3672 28.578C55.5899 30.7367 57.152 33.4513 57.8799 36.4199C58.1154 37.4767 58.7135 38.4247 59.5764 39.1087C60.4392 39.7927 61.5158 40.1722 62.6299 40.1852H62.9399C63.6692 40.1839 64.3888 40.0235 65.0455 39.7156C65.7022 39.4078 66.279 38.9604 66.7333 38.4068C67.1876 37.8532 67.5077 37.2074 67.6698 36.5174C67.8319 35.8274 67.832 35.1109 67.6699 34.4209C66.5411 29.6092 64.035 25.2047 60.4401 21.7144C56.8452 18.2241 52.3077 15.7899 47.3499 14.6921C46.6389 14.5349 45.9005 14.5349 45.1894 14.6922C44.4784 14.8496 43.813 15.1602 43.2425 15.601C42.672 16.0419 42.211 16.6017 41.8938 17.2389C41.5766 17.8762 41.4112 18.5745 41.4099 19.2823Z" fill="white" fill-opacity="0.8"/>
</svg>
