<svg width="19" height="20" viewBox="0 0 19 20" fill="none" xmlns="http://www.w3.org/2000/svg">
<path d="M18.3888 13.7569C18.3369 13.7157 14.5667 10.9981 13.5318 11.1932C13.0378 11.2806 12.7553 11.6175 12.1885 12.292C12.0973 12.4009 11.8782 12.6619 11.7078 12.8474C11.3496 12.7306 11.0002 12.5884 10.6622 12.4218C8.91766 11.5725 7.50816 10.163 6.65887 8.41854C6.49221 8.0806 6.34998 7.73116 6.23327 7.3729C6.41947 7.2019 6.6804 6.98277 6.79187 6.88904C7.4632 6.32537 7.80077 6.0429 7.88817 5.54764C8.0674 4.52164 5.35167 0.725438 5.32317 0.691238C5.19995 0.515216 5.03915 0.368784 4.85239 0.262536C4.66564 0.156289 4.4576 0.0928821 4.24333 0.0769043C3.1426 0.0769043 0 4.15367 0 4.8402C0 4.8801 0.0576334 8.93597 5.05907 14.0235C10.1416 19.0193 14.1968 19.0769 14.2367 19.0769C14.9239 19.0769 19 15.9343 19 14.8336C18.9842 14.6201 18.9212 14.4127 18.8155 14.2265C18.7098 14.0403 18.5641 13.8799 18.3888 13.7569Z" fill="#26B636"/>
</svg>
