<svg width="119" height="83" viewBox="0 0 119 83" fill="none" xmlns="http://www.w3.org/2000/svg">
<path d="M1.48857 34.2939L1.4892 34.2971L9.23566 75.4034C10.0297 79.617 14.5263 82.8261 19.2991 82.3618L96.0243 74.8983L96.0307 74.8977C96.3098 74.8742 96.5766 74.801 96.8155 74.6835C97.0543 74.5659 97.259 74.407 97.419 74.2178C97.579 74.0288 97.6909 73.8138 97.7511 73.5865C97.8112 73.3593 97.8189 73.123 97.7751 72.8906C97.7313 72.6583 97.6365 72.4319 97.4944 72.2244C97.3523 72.0167 97.1648 71.8309 96.9406 71.6792C96.7163 71.5275 96.4602 71.4134 96.1865 71.3457C95.9127 71.2779 95.6284 71.2584 95.3506 71.2891L95.3442 71.2898L18.619 78.7532C16.145 78.9939 13.7957 77.3969 13.3447 75.0037L5.59826 33.8973L5.59766 33.8942C5.5527 33.6468 5.44985 33.406 5.29388 33.1873C5.13778 32.9684 4.93093 32.7752 4.6843 32.6226C4.43754 32.4699 4.15725 32.3616 3.86134 32.3075C3.56544 32.2534 3.26271 32.255 2.97377 32.3128L1.48857 34.2939ZM1.48857 34.2939C1.40433 33.8622 1.49881 33.4192 1.76813 33.0509C2.03842 32.6813 2.46587 32.4144 2.97369 32.3128L1.48857 34.2939ZM10.1732 23.54L10.1733 23.54C10.465 23.4816 10.7707 23.4805 11.0693 23.5361C11.3678 23.5917 11.6501 23.7023 11.8978 23.8581C12.1454 24.0137 12.3521 24.2103 12.5068 24.4326C12.6613 24.6546 12.7615 24.8987 12.8025 25.1488L12.8024 25.1488L12.8046 25.1604L20.551 66.2667C21.0031 68.6659 23.3512 70.2205 25.8185 69.9804L102.544 62.517L102.55 62.5163C102.828 62.4856 103.112 62.5051 103.386 62.5729C103.66 62.6406 103.916 62.7547 104.14 62.9064C104.364 63.0581 104.552 63.2439 104.694 63.4516C104.836 63.6591 104.931 63.8855 104.975 64.1178C105.018 64.3502 105.011 64.5865 104.951 64.8137C104.89 65.041 104.779 65.256 104.619 65.445C104.459 65.6342 104.254 65.7931 104.015 65.9107C103.776 66.0282 103.509 66.1014 103.23 66.1249L103.224 66.1255L26.4986 73.589C21.7228 74.0536 17.2355 70.8773 16.442 66.6665L8.69547 25.5601L8.69561 25.5601L8.69315 25.5485C8.60043 25.113 8.69004 24.6639 8.95878 24.2898C9.22856 23.9142 9.65967 23.6426 10.1732 23.54ZM15.895 16.7873C15.1015 12.5765 18.2517 8.65724 23.0274 8.19268L99.7526 0.729145C104.528 0.264586 109.016 3.44093 109.809 7.65171L117.556 48.758C118.349 52.9689 115.199 56.8881 110.423 57.3527L33.6981 64.8162C28.9224 65.2808 24.435 62.1045 23.6415 57.8937L15.895 16.7873ZM100.433 4.33773L23.7075 11.8013C21.24 12.0413 19.552 13.9885 20.0041 16.3876L27.7506 57.4939C28.2027 59.8932 30.5506 61.4477 33.0181 61.2076L109.743 53.7441C112.211 53.5041 113.899 51.557 113.447 49.1578L105.7 8.05143C105.248 5.65232 102.9 4.0977 100.433 4.33773Z" fill="black" fill-opacity="0.1" stroke="#E5F6F9"/>
</svg>
