<svg width="107" height="107" viewBox="0 0 107 107" fill="none" xmlns="http://www.w3.org/2000/svg">
<g clip-path="url(#clip0)">
<path d="M6.5742 25.089C5.21392 25.3478 4.28747 26.7095 4.54625 28.0698L18.7464 102.714C19.0052 104.075 20.367 105.001 21.7272 104.742L103.12 89.2583C104.48 88.9995 105.406 87.6378 105.148 86.2775L90.9473 11.6331C90.6886 10.2728 89.3268 9.34635 87.9665 9.60512L6.5742 25.089ZM7.63685 28.0225L88.0553 12.7239L102.057 86.3248L21.6385 101.623L7.63685 28.0225Z" fill="black" fill-opacity="0.1"/>
<path d="M23.4776 26.408C21.1494 26.8509 19.5353 29.1563 20.0018 31.6085C20.4683 34.0607 22.8175 35.6195 25.1457 35.1766C27.4739 34.7337 29.0866 32.4212 28.6201 29.969C28.1536 27.5168 25.8058 25.9651 23.4776 26.408ZM23.9133 28.6986C25.1632 28.4608 26.268 29.2498 26.4822 30.3757C26.6964 31.5015 25.9598 32.6483 24.7099 32.886C23.4601 33.1238 22.3539 32.3277 22.1397 31.2018C21.9255 30.0759 22.6635 28.9364 23.9133 28.6986Z" fill="black" fill-opacity="0.1"/>
<path d="M36.0207 40.2473C35.2566 40.3926 34.7552 41.1734 34.9007 41.9381L35.8734 47.0512C36.0189 47.8158 36.7647 48.3233 37.5294 48.1778L42.6425 47.2051C43.4072 47.0596 43.9494 46.3071 43.8039 45.5425L42.8312 40.4294C42.6858 39.6648 41.8979 39.1292 41.1338 39.2746L36.0207 40.2473ZM36.3334 41.7016L41.377 40.7421L42.3364 45.7856L37.2929 46.7451L36.3334 41.7016Z" fill="black" fill-opacity="0.1"/>
<path d="M46.7688 38.2026C46.0047 38.348 45.5033 39.1288 45.6487 39.8934L46.6214 45.0065C46.7669 45.7711 47.5128 46.2786 48.2774 46.1331L53.3906 45.1604C54.1552 45.015 54.6627 44.2691 54.5172 43.5044L53.5445 38.3913C53.399 37.6267 52.646 37.0845 51.8819 37.2299L46.7688 38.2026ZM47.0815 39.6569L52.125 38.6974L53.0845 43.7409L48.0409 44.7004L47.0815 39.6569Z" fill="black" fill-opacity="0.1"/>
<path d="M57.5169 36.1579C56.7528 36.3033 56.2166 37.0906 56.3621 37.8553L57.3348 42.9684C57.4803 43.7331 58.2609 44.2339 59.0256 44.0884L64.1387 43.1157C64.9034 42.9703 65.4108 42.2244 65.2654 41.4597L64.2927 36.3466C64.1472 35.582 63.3941 35.0398 62.63 35.1852L57.5169 36.1579ZM57.8296 37.6122L62.8732 36.6527L63.8326 41.6962L58.7891 42.6557L57.8296 37.6122Z" fill="black" fill-opacity="0.1"/>
<path d="M68.2302 34.1198C67.4661 34.2652 66.9647 35.0459 67.1102 35.8106L68.0829 40.9237C68.2283 41.6884 68.9742 42.1958 69.7389 42.0504L74.852 41.0777C75.6167 40.9322 76.1589 40.1797 76.0134 39.415L75.0407 34.3019C74.8952 33.5373 74.1074 33.0018 73.3433 33.1471L68.2302 34.1198ZM68.5429 35.5741L73.5864 34.6146L74.5459 39.6582L69.5024 40.6177L68.5429 35.5741Z" fill="black" fill-opacity="0.1"/>
<path d="M78.9777 32.0752C78.2137 32.2205 77.7123 33.0013 77.8577 33.7659L78.8304 38.8791C78.9759 39.6437 79.7217 40.1512 80.4864 40.0057L85.5995 39.033C86.3642 38.8875 86.8717 38.1417 86.7262 37.377L85.7535 32.2639C85.608 31.4991 84.8549 30.9571 84.0909 31.1025L78.9777 32.0752ZM79.2904 33.5294L84.334 32.57L85.2935 37.6135L80.2499 38.573L79.2904 33.5294Z" fill="black" fill-opacity="0.1"/>
<path d="M16.7365 55.7734C15.9718 55.9189 15.4644 56.6647 15.6099 57.4294L16.5826 62.5425C16.7281 63.3072 17.4739 63.8146 18.2386 63.6692L23.3517 62.6964C24.1164 62.551 24.6238 61.8051 24.4784 61.0404L23.5056 55.9273C23.3602 55.1627 22.6143 54.6552 21.8496 54.8007L16.7365 55.7734ZM17.0426 57.1929L22.0862 56.2334L23.0456 61.277L18.0021 62.2364L17.0426 57.1929Z" fill="black" fill-opacity="0.1"/>
<path d="M27.4847 53.7289C26.72 53.8744 26.1778 54.6269 26.3233 55.3916L27.296 60.5047C27.4414 61.2693 28.2221 61.7702 28.9868 61.6247L34.0999 60.652C34.8646 60.5065 35.372 59.7607 35.2265 58.996L34.2538 53.8829C34.1083 53.1181 33.3625 52.6108 32.5978 52.7562L27.4847 53.7289ZM27.7908 55.1484L32.8343 54.189L33.7938 59.2325L28.7503 60.192L27.7908 55.1484Z" fill="black" fill-opacity="0.1"/>
<path d="M38.198 51.6909C37.4333 51.8364 36.9259 52.5823 37.0713 53.3469L38.044 58.46C38.1895 59.2246 38.9353 59.7321 39.7 59.5866L44.8131 58.6139C45.5778 58.4685 46.12 57.7159 45.9746 56.9513L45.0019 51.8382C44.8564 51.0736 44.0758 50.5727 43.3111 50.7182L38.198 51.6909ZM38.504 53.1104L43.5476 52.1509L44.5071 57.1944L39.4635 58.1539L38.504 53.1104Z" fill="black" fill-opacity="0.1"/>
<path d="M48.946 49.6462C48.1813 49.7917 47.6739 50.5376 47.8194 51.3022L48.7921 56.4153C48.9375 57.1799 49.6834 57.6874 50.4481 57.542L55.5612 56.5693C56.3259 56.4238 56.8333 55.6779 56.6878 54.9133L55.7151 49.8001C55.5697 49.0355 54.8238 48.528 54.0591 48.6735L48.946 49.6462ZM49.2521 51.0657L54.2956 50.1062L55.2551 55.1498L50.2116 56.1092L49.2521 51.0657Z" fill="black" fill-opacity="0.1"/>
<path d="M59.6937 47.6015C58.929 47.747 58.3868 48.4994 58.5323 49.2641L59.505 54.3772C59.6504 55.1419 60.4311 55.6427 61.1958 55.4973L66.3089 54.5245C67.0735 54.3791 67.581 53.6332 67.4355 52.8685L66.4628 47.7554C66.3173 46.9908 65.5715 46.4833 64.8068 46.6288L59.6937 47.6015ZM59.9998 49.021L65.0433 48.0615L66.0028 53.1051L60.9592 54.0645L59.9998 49.021Z" fill="black" fill-opacity="0.1"/>
<path d="M70.4069 45.5634C69.6423 45.7089 69.1348 46.4548 69.2803 47.2194L70.253 52.3326C70.3985 53.0972 71.1443 53.6047 71.909 53.4592L77.0221 52.4865C77.7868 52.341 78.329 51.5885 78.1835 50.8239L77.2108 45.7108C77.0654 44.9461 76.2847 44.4453 75.5201 44.5907L70.4069 45.5634ZM70.713 46.9829L75.7566 46.0235L76.716 51.067L71.6725 52.0265L70.713 46.9829Z" fill="black" fill-opacity="0.1"/>
<path d="M81.1882 43.6926C80.4241 43.838 79.9161 44.584 80.0616 45.3486L81.0343 50.4617C81.1797 51.2263 81.9256 51.7338 82.6903 51.5883L87.8034 50.6156C88.5681 50.4702 89.0755 49.7244 88.93 48.9596L87.9573 43.8465C87.8118 43.0818 87.0654 42.5745 86.3013 42.7199L81.1882 43.6926ZM81.4943 45.1121L86.5378 44.1526L87.4973 49.1962L82.4537 50.1556L81.4943 45.1121Z" fill="black" fill-opacity="0.1"/>
<path d="M18.9069 67.1823C18.1429 67.3277 17.6348 68.0737 17.7803 68.8383L18.753 73.9515C18.8985 74.7161 19.6437 75.2237 20.409 75.0781L25.5221 74.1054C26.2874 73.9598 26.7942 73.214 26.6488 72.4494L25.6761 67.3363C25.5306 66.5716 24.7841 66.0643 24.0201 66.2096L18.9069 67.1823ZM19.213 68.6018L24.2566 67.6424L25.216 72.6859L20.1725 73.6454L19.213 68.6018Z" fill="black" fill-opacity="0.1"/>
<path d="M29.6551 65.1376C28.891 65.283 28.3482 66.0356 28.4937 66.8003L29.4664 71.9134C29.6119 72.678 30.3919 73.179 31.1572 73.0334L36.2703 72.0607C37.0356 71.9151 37.5424 71.1694 37.3969 70.4047L36.4242 65.2916C36.2787 64.5268 35.5323 64.0196 34.7682 64.1649L29.6551 65.1376ZM29.9612 66.5571L35.0047 65.5977L35.9642 70.6412L30.9207 71.6007L29.9612 66.5571Z" fill="black" fill-opacity="0.1"/>
<path d="M40.3684 63.0996C39.6043 63.2449 39.0963 63.991 39.2417 64.7556L40.2144 69.8687C40.3599 70.6333 41.1052 71.1409 41.8704 70.9953L46.9836 70.0226C47.7488 69.877 48.2904 69.1246 48.145 68.36L47.1723 63.2469C47.0268 62.4823 46.2456 61.9815 45.4815 62.1269L40.3684 63.0996ZM40.6745 64.5191L45.718 63.5596L46.6775 68.6031L41.6339 69.5626L40.6745 64.5191Z" fill="black" fill-opacity="0.1"/>
<path d="M51.1164 61.0549C50.3523 61.2003 49.8443 61.9463 49.9898 62.7109L50.9625 67.824C51.1079 68.5886 51.8532 69.0962 52.6185 68.9507L57.7316 67.9779C58.4969 67.8324 59.0037 67.0866 58.8582 66.3219L57.8855 61.2088C57.7401 60.4442 56.9936 59.9368 56.2295 60.0822L51.1164 61.0549ZM51.4225 62.4744L56.466 61.5149L57.4255 66.5585L52.382 67.5179L51.4225 62.4744Z" fill="black" fill-opacity="0.1"/>
<path d="M61.8641 59.0102C61.1 59.1556 60.5572 59.9081 60.7027 60.6728L61.6754 65.7859C61.8208 66.5506 62.6009 67.0515 63.3662 66.9059L68.4793 65.9332C69.2446 65.7877 69.7514 65.0419 69.6059 64.2772L68.6332 59.1641C68.4877 58.3995 67.7413 57.8921 66.9772 58.0375L61.8641 59.0102ZM62.1702 60.4297L67.2137 59.4702L68.1732 64.5138L63.1296 65.4732L62.1702 60.4297Z" fill="black" fill-opacity="0.1"/>
<path d="M72.5774 56.9721C71.8133 57.1175 71.3052 57.8635 71.4507 58.6281L72.4234 63.7412C72.5689 64.5059 73.3141 65.0135 74.0794 64.8679L79.1925 63.8952C79.9578 63.7496 80.4994 62.9972 80.3539 62.2326L79.3812 57.1195C79.2358 56.3548 78.4545 55.8541 77.6905 55.9994L72.5774 56.9721ZM72.8834 58.3916L77.927 57.4322L78.8864 62.4757L73.8429 63.4352L72.8834 58.3916Z" fill="black" fill-opacity="0.1"/>
<path d="M83.3254 54.9275C82.5613 55.0728 82.0533 55.8188 82.1988 56.5835L83.1715 61.6966C83.3169 62.4612 84.0622 62.9688 84.8275 62.8232L89.9406 61.8505C90.7059 61.7049 91.2127 60.9593 91.0672 60.1945L90.0945 55.0814C89.949 54.3166 89.2026 53.8094 88.4385 53.9548L83.3254 54.9275ZM83.6315 56.3469L88.675 55.3875L89.6345 60.431L84.591 61.3905L83.6315 56.3469Z" fill="black" fill-opacity="0.1"/>
<path d="M21.0774 78.5913C20.3127 78.7367 19.8052 79.4826 19.9507 80.2473L20.9234 85.3604C21.0689 86.1251 21.8214 86.6673 22.586 86.5218L27.6992 85.5491C28.4638 85.4036 28.9646 84.623 28.8192 83.8583L27.8465 78.7452C27.701 77.9806 26.9552 77.4731 26.1905 77.6186L21.0774 78.5913ZM21.3834 80.0108L26.427 79.0513L27.3865 84.0948L22.3429 85.0543L21.3834 80.0108Z" fill="black" fill-opacity="0.1"/>
<path d="M31.8255 76.5466C31.0608 76.692 30.5186 77.4446 30.6641 78.2092L31.6368 83.3223C31.7823 84.0869 32.5695 84.6226 33.3342 84.4771L38.4473 83.5044C39.212 83.3589 39.7128 82.5784 39.5673 81.8136L38.5946 76.7005C38.4491 75.9357 37.7033 75.4284 36.9386 75.5739L31.8255 76.5466ZM32.1316 77.9661L37.1751 77.0066L38.1346 82.0501L33.0911 83.0096L32.1316 77.9661Z" fill="black" fill-opacity="0.1"/>
<path d="M42.5388 74.5085C41.7741 74.654 41.2667 75.3999 41.4121 76.1645L42.3848 81.2776C42.5303 82.0423 43.2828 82.5845 44.0475 82.4391L49.1606 81.4663C49.9253 81.3209 50.4608 80.5336 50.3154 79.7689L49.3427 74.6558C49.1972 73.8912 48.4166 73.3903 47.6519 73.5358L42.5388 74.5085ZM42.8449 75.928L47.8884 74.9685L48.8479 80.0121L43.8043 80.9715L42.8449 75.928Z" fill="black" fill-opacity="0.1"/>
<path d="M53.2868 72.4638C52.5221 72.6093 52.0147 73.3552 52.1602 74.1198L53.1329 79.2329C53.2784 79.9976 54.0308 80.5398 54.7955 80.3944L59.9086 79.4217C60.6733 79.2762 61.1741 78.4955 61.0286 77.7309L60.0559 72.6178C59.9105 71.8531 59.1646 71.3457 58.3999 71.4911L53.2868 72.4638ZM53.5929 73.8833L58.6365 72.9239L59.5959 77.9674L54.5524 78.9269L53.5929 73.8833Z" fill="black" fill-opacity="0.1"/>
<path d="M64.0345 70.4191C63.2698 70.5646 62.7276 71.3171 62.8731 72.0818L63.8458 77.1949C63.9913 77.9595 64.7785 78.4951 65.5432 78.3497L70.6563 77.377C71.421 77.2315 71.9218 76.4508 71.7763 75.6862L70.8036 70.5731C70.6581 69.8084 69.9123 69.301 69.1476 69.4464L64.0345 70.4191ZM64.3406 71.8386L69.3841 70.8791L70.3436 75.9227L65.3001 76.8822L64.3406 71.8386Z" fill="black" fill-opacity="0.1"/>
<path d="M74.7478 68.3811C73.9831 68.5265 73.4757 69.2724 73.6211 70.0371L74.5938 75.1502C74.7393 75.9149 75.4918 76.4571 76.2565 76.3116L81.3696 75.3389C82.1342 75.1934 82.6698 74.4061 82.5244 73.6415L81.5517 68.5284C81.4062 67.7638 80.6256 67.2629 79.8609 67.4084L74.7478 68.3811ZM75.0538 69.8006L80.0974 68.8411L81.0569 73.8846L76.0133 74.8441L75.0538 69.8006Z" fill="black" fill-opacity="0.1"/>
<path d="M85.4958 66.3364C84.7311 66.4819 84.2237 67.2278 84.3692 67.9924L85.3419 73.1055C85.4873 73.8701 86.2398 74.4124 87.0045 74.2669L92.1176 73.2942C92.8823 73.1488 93.3831 72.3682 93.2376 71.6034L92.2649 66.4903C92.1194 65.7256 91.3736 65.2182 90.6089 65.3637L85.4958 66.3364ZM85.8019 67.7559L90.8454 66.7964L91.8049 71.84L86.7614 72.7994L85.8019 67.7559Z" fill="black" fill-opacity="0.1"/>
<path d="M23.2478 90C22.4831 90.1454 21.9823 90.9261 22.1277 91.6908L23.1004 96.8039C23.2459 97.5685 23.9924 98.0759 24.7565 97.9305L29.8696 96.9578C30.6337 96.8124 31.1417 96.0664 30.9962 95.3018L30.0235 90.1887C29.878 89.4241 29.1256 88.8818 28.3609 89.0273L23.2478 90ZM23.5605 91.4542L28.604 90.4948L29.5635 95.5383L24.5199 96.4978L23.5605 91.4542Z" fill="black" fill-opacity="0.1"/>
<path d="M33.9959 87.9553C33.2312 88.1007 32.6957 88.888 32.8411 89.6527L33.8138 94.7658C33.9593 95.5304 34.7405 96.0312 35.5046 95.8858L40.6177 94.9131C41.3818 94.7677 41.8898 94.0218 41.7444 93.2571L40.7717 88.144C40.6262 87.3792 39.8737 86.8371 39.109 86.9826L33.9959 87.9553ZM34.3086 89.4095L39.3522 88.4501L40.3116 93.4936L35.2681 94.4531L34.3086 89.4095Z" fill="black" fill-opacity="0.1"/>
<path d="M44.7092 85.9172C43.9445 86.0627 43.4437 86.8434 43.5892 87.608L44.5619 92.7211C44.7073 93.4857 45.4538 93.9931 46.2179 93.8477L51.331 92.875C52.0951 92.7297 52.6379 91.977 52.4924 91.2124L51.5197 86.0993C51.3742 85.3347 50.587 84.799 49.8223 84.9445L44.7092 85.9172ZM45.0219 87.3715L50.0654 86.412L51.0249 91.4555L45.9814 92.415L45.0219 87.3715Z" fill="black" fill-opacity="0.1"/>
<path d="M55.4572 83.8725C54.6925 84.018 54.1918 84.7987 54.3372 85.5633L55.3099 90.6764C55.4554 91.441 56.2018 91.9484 56.9659 91.8031L62.079 90.8304C62.8431 90.685 63.3511 89.939 63.2057 89.1744L62.233 84.0612C62.0875 83.2966 61.335 82.7543 60.5703 82.8998L55.4572 83.8725ZM55.7699 85.3268L60.8135 84.3673L61.7729 89.4109L56.7294 90.3703L55.7699 85.3268Z" fill="black" fill-opacity="0.1"/>
<path d="M72.6382 17.1737C70.31 17.6166 68.696 19.9219 69.1625 22.3741C69.629 24.8263 71.9781 26.3851 74.3063 25.9422C76.6345 25.4993 78.2472 23.1868 77.7807 20.7346C77.3142 18.2824 74.9664 16.7307 72.6382 17.1737ZM73.074 19.4642C74.3238 19.2264 75.4287 20.0154 75.6429 21.1413C75.857 22.2672 75.1204 23.4139 73.8706 23.6516C72.6207 23.8894 71.5145 23.0933 71.3003 21.9674C71.0862 20.8415 71.8241 19.702 73.074 19.4642Z" fill="black" fill-opacity="0.1"/>
<path d="M13.5142 38.8342L13.8979 40.8516L86.3163 27.075L85.9325 25.0575L13.5142 38.8342Z" fill="black" fill-opacity="0.1"/>
<path d="M20.7223 14.4978L21.628 14.3255C22.1797 14.2206 22.7082 14.5802 22.8132 15.1318L25.7413 30.5235C25.8462 31.0752 25.4866 31.6037 24.9349 31.7087L24.0292 31.881C23.4776 31.9859 22.949 31.6263 22.8441 31.0747L19.916 15.683C19.811 15.1314 20.1707 14.6028 20.7223 14.4978Z" fill="black" fill-opacity="0.1"/>
<path d="M69.9537 5.13211L70.8595 4.95981C71.4111 4.85486 71.9397 5.21448 72.0446 5.76611L74.9727 21.1578C75.0776 21.7094 74.718 22.238 74.1664 22.343L73.2607 22.5153C72.709 22.6202 72.1805 22.2606 72.0755 21.709L69.1474 6.31727C69.0425 5.76563 69.4021 5.23705 69.9537 5.13211Z" fill="black" fill-opacity="0.1"/>
</g>
<defs>
<clipPath id="clip0">
<rect width="90.6416" height="90.6416" fill="white" transform="translate(0.285645 17.4189) rotate(-10.7711)"/>
</clipPath>
</defs>
</svg>
