<svg width="94" height="123" viewBox="0 0 94 123" fill="none" xmlns="http://www.w3.org/2000/svg">
<path d="M62.4382 8.42326C63.0125 10.4915 63.535 12.5746 63.9919 14.618C64.0913 15.0628 64.4875 15.3646 64.9282 15.3646C64.9969 15.3646 65.0669 15.3571 65.1369 15.3422C65.6544 15.228 65.9807 14.7187 65.8657 14.2031C65.4026 12.1299 64.8719 10.0145 64.2894 7.91767C64.1782 7.51272 64.0613 7.09535 63.9363 6.66554C63.7894 6.15873 63.255 5.87179 62.7476 6.01339C62.2382 6.15996 61.9444 6.68789 62.0913 7.19471C62.2138 7.61709 62.3282 8.02452 62.4382 8.42326Z" fill="black" fill-opacity="0.1"/>
<path d="M65.2474 21.0885C66.3636 27.8845 66.7642 34.2905 66.438 40.1275C66.4086 40.6542 66.8143 41.1039 67.3436 41.1337C67.3617 41.135 67.3799 41.135 67.3974 41.135C67.9036 41.135 68.3267 40.7424 68.3555 40.2344C68.6892 34.2594 68.2811 27.7144 67.1424 20.7805C67.0574 20.2612 66.558 19.8998 66.0405 19.9929C65.5167 20.0774 65.1617 20.568 65.2474 21.0885Z" fill="black" fill-opacity="0.1"/>
<path d="M0.311209 28.3579C-0.00129002 28.9939 -0.0406635 29.7082 0.200578 30.3678L0.199951 30.3665C5.48557 44.884 17.6331 54.5407 29.9831 54.5395C30.8814 54.5395 31.7807 54.4724 32.6788 54.3687C34.0593 56.0121 35.4417 57.5089 36.8234 58.8685L31.3168 69.8681C29.4112 73.6679 25.9881 76.5995 21.9262 77.9125L20.8841 78.2491L20.6781 77.6193C20.0031 75.5585 17.765 74.4232 15.6893 75.0952L4.34245 78.7621C3.33683 79.0876 2.51871 79.782 2.03871 80.7186C1.55934 81.654 1.47496 82.721 1.80183 83.7197L9.95559 108.639C10.4993 110.299 12.055 111.356 13.7231 111.356C14.1281 111.356 14.5393 111.294 14.9443 111.163L26.2912 107.496C28.3668 106.826 29.5062 104.602 28.8318 102.539L28.4846 101.477L32.4087 100.21C36.0706 99.026 40.03 98.6434 43.8525 99.1005L46.0112 99.3589C49.7537 99.8036 53.6175 99.5129 57.26 98.5154C57.3481 98.5067 57.4362 98.4881 57.5237 98.4608L59.2682 97.9024C59.2731 98.8074 59.2332 99.6005 59.1514 100.269C58.3085 100.632 57.6153 101.252 57.1931 102.076C56.7137 103.011 56.6293 104.078 56.9562 105.077L57.7991 107.652L56.3049 108.135C55.2993 108.459 54.4806 109.154 54.0006 110.09C53.5212 111.027 53.4368 112.093 53.7637 113.092L56.6056 121.778C56.7106 122.098 56.9399 122.364 57.2424 122.518C57.4237 122.609 57.6231 122.656 57.8231 122.656C57.9562 122.656 58.0899 122.635 58.2187 122.594L93.0706 111.331C93.743 111.114 94.1106 110.396 93.8924 109.727L91.0506 101.042C90.3749 98.9812 88.1387 97.8484 86.0624 98.5179L84.5673 99.0011L83.7249 96.4261C83.0913 94.492 81.083 93.397 79.1257 93.8181C78.577 93.2367 77.97 92.4784 77.3219 91.5573C78.991 89.999 79.4366 87.8009 78.8068 85.8737C78.4456 84.7719 77.7593 83.8601 76.8843 83.208C78.9946 81.9378 80.0542 79.3547 79.2625 76.838C78.928 75.8175 78.3075 74.9437 77.4824 74.2859L78.4931 73.9561C81.4812 72.9953 82.9675 69.8054 82.02 67.0682C81.0656 64.1714 78.0687 62.6324 75.1843 63.5702L75.0706 63.6087C75.3062 62.6385 75.2687 61.6199 74.9506 60.6473C74.2141 58.399 72.1385 56.968 69.8841 56.899C71.7015 52.6259 72.8479 47.2584 73.2346 41.1717C84.7118 34.5788 89.6906 18.6179 85.0556 2.8359C84.8568 2.16263 84.4012 1.6111 83.7724 1.28068C83.1443 0.951494 82.3987 0.885656 81.725 1.10677L68.6763 5.34017C68.4818 4.66878 68.2944 3.99738 68.085 3.32535C67.4306 1.22171 65.1817 0.0602674 63.0731 0.736628L16.8631 15.669C14.7572 16.3478 13.618 18.6185 14.3475 20.7085C14.5867 21.3955 14.8372 22.0569 15.0845 22.7271L1.86184 27.0163C1.18809 27.235 0.622467 27.7244 0.311209 28.3579ZM25.5 105.077L14.1531 108.744C13.4212 108.975 12.6287 108.581 12.3906 107.852L4.23683 82.9322C4.12121 82.5794 4.15058 82.203 4.31995 81.8726C4.48995 81.5422 4.7787 81.2962 5.1337 81.1819L16.48 77.515C17.2131 77.2765 18.0043 77.6777 18.2431 78.4069C25.2873 99.9352 19.3677 81.844 26.3968 103.326C26.6356 104.054 26.2331 104.839 25.5 105.077ZM84.1412 101.815C84.1418 101.815 84.1422 101.814 84.1428 101.813L86.8537 100.938C86.9968 100.892 87.1425 100.869 87.285 100.869C87.8743 100.869 88.4237 101.243 88.6156 101.83L91.0618 109.305L58.6443 119.782L56.1987 112.305C56.0831 111.952 56.1125 111.576 56.2818 111.244C56.4512 110.914 56.74 110.669 57.0956 110.555L71.9747 105.746L84.1412 101.815ZM79.5287 96.3217C79.6712 96.2758 79.8169 96.2534 79.9594 96.2534C80.5487 96.2534 81.0981 96.6273 81.29 97.2136L82.1322 99.7881L60.2336 106.865L59.3912 104.289C59.2756 103.936 59.305 103.56 59.4743 103.23C59.6443 102.899 59.9331 102.653 60.2881 102.539L79.5287 96.3217ZM61.8182 97.0869L75.0966 92.838C75.5557 93.5001 76.0005 94.0964 76.4275 94.6187L61.8018 99.3701C61.8379 98.6788 61.8434 97.9167 61.8182 97.0869ZM72.5156 61.4349C72.9834 62.8634 72.284 64.4037 70.9106 65.0049L67.2218 66.2446L67.2168 66.2459C66.5481 66.4707 66.1887 67.1912 66.4137 67.8558C66.6381 68.5203 67.3624 68.8756 68.0324 68.657C68.1671 68.6116 76.1271 65.9384 75.9925 65.9838C77.4968 65.4906 79.0787 66.3154 79.5925 67.8769C80.0873 69.301 79.3191 71.0171 77.6993 71.5376L69.1825 74.3188C68.54 74.5288 68.1725 75.1983 68.3431 75.8492C68.5154 76.5026 69.168 76.9038 69.8281 76.7759C73.4211 75.6138 73.0716 75.7791 73.0906 75.7722C74.6493 75.2399 76.332 76.107 76.8231 77.6119C77.3181 79.1833 76.4825 80.795 74.9387 81.3124C74.1753 81.5751 72.1418 82.2751 71.8825 82.3558C71.2725 82.5533 70.9243 83.2763 71.0418 83.9036C71.1112 84.275 71.3425 84.5955 71.6731 84.7806C72.005 84.9657 72.4018 84.9955 72.755 84.8601L73.3162 84.6477C74.6425 84.5321 75.9418 85.3483 76.3718 86.6612C76.8233 88.0395 76.1944 89.4785 74.9972 90.1381C68.687 92.1784 64.1048 93.6604 57.7875 95.7031C57.7587 95.7106 57.7293 95.7193 57.7006 95.728H57.7C54.0562 96.9068 50.1181 97.2894 46.3175 96.8323L44.1587 96.5739C39.9662 96.077 35.6306 96.4932 31.6168 97.79L27.6929 99.0583L21.6758 80.6689L22.7175 80.3323C27.4287 78.8094 31.3981 75.4095 33.6087 71.0022L38.771 60.6902C40.6139 62.3249 42.4522 63.7019 44.2796 64.8161L41.3131 65.7751C40.6406 65.9937 40.2731 66.7105 40.4925 67.3788C40.7112 68.0471 41.4381 68.416 42.1056 68.1949L68.8143 59.5617C70.3556 59.066 72.015 59.9045 72.5156 61.4349ZM82.5981 3.55018C86.7056 17.5322 82.83 31.6162 73.3831 38.1041C73.6255 28.2349 71.9441 17.3807 69.3687 7.79473L82.5981 3.55018ZM30.3361 13.9908L33.605 23.9792L30.2543 22.3892C29.7931 22.1706 29.2406 22.3482 28.9962 22.7954L27.2275 26.04L23.9592 16.0515L30.3361 13.9908ZM17.6543 18.0887L22.1332 16.6416L26.0931 28.743C26.2118 29.1069 26.5368 29.3641 26.9187 29.3989C26.9481 29.4013 26.9775 29.4026 27.0062 29.4026C27.3562 29.4026 27.6812 29.2125 27.8506 28.9032L30.25 24.5022L34.7956 26.6586C35.1406 26.8213 35.5531 26.7667 35.8425 26.5145C36.1306 26.2636 36.2412 25.8661 36.1225 25.5034L32.1622 13.4007L63.8643 3.15641C64.6015 2.91791 65.4045 3.32411 65.6393 4.07686C70.3413 19.1843 73.9707 43.4145 66.7798 57.5437L47.5723 63.7522C33.4582 56.6935 21.9464 34.7515 16.7662 19.8762C16.5079 19.1316 16.9113 18.3279 17.6543 18.0887ZM2.65558 29.4349L15.9774 25.1133C19.5525 34.2664 24.7625 44.2728 30.7556 51.9831C19.1943 52.3719 7.63744 43.3176 2.60745 29.502C2.60746 29.5007 2.65558 29.4361 2.65558 29.4349Z" fill="black" fill-opacity="0.1"/>
<path d="M63.1325 110.58L58.7907 112.013C58.4569 112.124 58.275 112.481 58.3838 112.813L59.6788 116.772C59.7669 117.041 60.0175 117.212 60.2875 117.212C60.3532 117.212 60.4194 117.202 60.4857 117.181C60.8213 117.072 61.0057 116.713 60.8963 116.379L59.7976 113.02L63.5363 111.787C63.8719 111.676 64.0532 111.316 63.9419 110.983C63.83 110.65 63.4669 110.466 63.1325 110.58Z" fill="black" fill-opacity="0.1"/>
<path d="M65.6199 110.428C65.7092 110.695 65.9592 110.864 66.2274 110.864C66.2942 110.864 66.3624 110.854 66.4292 110.832L72.4674 108.839C72.8024 108.729 72.9842 108.368 72.873 108.036C72.7617 107.703 72.3992 107.522 72.0636 107.632L66.0255 109.624C65.6905 109.735 65.5086 110.095 65.6199 110.428Z" fill="black" fill-opacity="0.1"/>
<path d="M37.5544 40.4172L45.4275 42.9525L45.4356 51.1869C45.4362 51.5993 45.7037 51.9658 46.0994 52.0925C46.1969 52.1248 46.2969 52.1397 46.3956 52.1397C46.6969 52.1397 46.9881 51.9981 47.1719 51.7472L52.04 45.094L59.9144 47.6306C60.3063 47.7548 60.7419 47.6181 60.9869 47.2827C61.2313 46.9486 61.2313 46.4964 60.9869 46.1623L56.1194 39.4967L60.9863 32.846C61.2313 32.5119 61.2313 32.0585 60.9869 31.7243C60.7419 31.389 60.3088 31.2461 59.9131 31.3778L52.0313 33.9243L47.1644 27.2599C46.9213 26.9258 46.4869 26.7829 46.0906 26.9133C45.695 27.0413 45.4269 27.4077 45.4275 27.8214L45.435 36.0546L37.5538 38.6023C37.1581 38.7303 36.8906 39.0967 36.8906 39.5091C36.8906 39.9228 37.1587 40.2892 37.5544 40.4172ZM46.6925 37.6545C47.0881 37.5266 47.3562 37.1602 47.3556 36.7465L47.35 30.7629L50.8875 35.6062C51.1313 35.9403 51.5669 36.0807 51.9613 35.9528L57.6938 34.1007L54.1563 38.9353C53.9113 39.2694 53.9113 39.7228 54.1556 40.057L57.7013 44.9114L51.9688 43.0655C51.5744 42.9388 51.1413 43.078 50.8969 43.4121L47.3525 48.2554L47.3469 42.2569C47.3463 41.8445 47.0781 41.478 46.6832 41.3501L40.96 39.5079L46.6925 37.6545Z" fill="black" fill-opacity="0.1"/>
<path d="M11.6605 82.2812C9.69112 82.9346 8.60612 85.0563 9.24237 87.0127C9.75675 88.5953 11.2392 89.6052 12.8311 89.6052C13.2142 89.6052 13.6042 89.5455 13.988 89.4226C13.9886 89.4226 13.9886 89.4226 13.9886 89.4226C15.9674 88.7866 17.0542 86.6637 16.4124 84.6898C15.7742 82.7247 13.6461 81.6489 11.6605 82.2812ZM13.5955 88.2127C12.2855 88.6288 10.8817 87.9183 10.4599 86.6227C10.0392 85.3271 10.7592 83.9209 12.0592 83.4899C12.3136 83.4091 12.5711 83.3706 12.8249 83.3706C13.8761 83.3706 14.8549 84.0364 15.1949 85.0799C15.6192 86.3866 14.9017 87.7916 13.5955 88.2127Z" fill="black" fill-opacity="0.1"/>
</svg>
