<svg width="180" height="58" viewBox="0 0 180 58" fill="none" xmlns="http://www.w3.org/2000/svg">
<path d="M12.9075 2.6084C9.37114 4.50909 5.76492 6.40333 2.74915 9.58618C-0.0570982 12.492 -0.787231 17.4467 0.901598 21.1836C2.71675 24.8218 5.07222 28.1553 7.88548 31.0672C5.99937 21.2773 7.79082 11.1256 12.9075 2.6084V2.6084Z" fill="#37A58C"/>
<path d="M9.96796 32.9619C13.4409 35.1976 16.9137 37.3689 20.9517 38.316C25.3579 39.334 29.4339 37.5042 32.037 33.909C34.064 30.5171 35.6476 26.872 36.748 23.0654C29.3395 29.6202 19.7951 33.1473 9.96796 32.9619V32.9619Z" fill="#DD0060"/>
<path d="M36.075 5.65616C35.2331 4.09181 34.0259 2.76095 32.5592 1.78029C31.0925 0.799632 29.4112 0.199117 27.6625 0.0314073C23.7084 -0.122123 19.7526 0.287777 15.9106 1.24914C24.5896 4.11628 33.2814 11.4162 37.6812 19.8888C37.8781 15.0114 38.0939 9.79257 36.075 5.65616Z" fill="#505050"/>
<path d="M179.308 54.1532C179.835 52.6836 180.064 51.121 179.981 49.5594V19.9215H169.981V49.3274C169.986 49.6066 169.935 49.884 169.834 50.1436C169.733 50.4031 169.582 50.6399 169.39 50.8404C169.199 51.0408 168.97 51.201 168.717 51.3117C168.465 51.4225 168.193 51.4816 167.918 51.4858H167.702C167.159 51.5231 166.623 51.3408 166.211 50.9787C165.8 50.6166 165.546 50.1041 165.505 49.5529V19.915H155.55V49.5529C155.454 51.1141 155.67 52.6789 156.185 54.1532C156.593 55.035 157.187 55.8148 157.926 56.4373C158.664 57.0598 159.529 57.5096 160.458 57.7549C161.351 57.9248 162.26 58.0025 163.169 57.9868H172.305C173.218 58.0043 174.13 57.9309 175.029 57.7678C175.961 57.524 176.828 57.0734 177.568 56.4483C178.308 55.8233 178.903 55.0394 179.308 54.1532V54.1532Z" fill="black"/>
<path d="M132.16 19.9023C128.929 19.9023 126.675 22.7373 126.7 26.1263V57.987H136.859V42.1694H140.998V57.987H151.106V19.9023H132.16ZM140.985 35.6362H136.865V27.9046C136.865 26.4935 137.386 25.9717 138.649 25.9717H140.985V35.6362Z" fill="black"/>
<path d="M112.053 19.9023V35.6362H107.609V19.9023H97.4061V57.987H107.628V42.1694H112.009V57.987H122.243V19.9023H112.053Z" fill="black"/>
<path d="M86.0668 27.2732H92.9999V19.9023H75.8196V57.987H93.0126V50.6097H86.0287V42.1694H91.9523V35.6362H86.0287L86.0668 27.2732Z" fill="black"/>
<path d="M66.2961 38.6982C67.707 38.4333 68.984 37.6808 69.91 36.5684C70.8359 35.4561 71.3537 34.0526 71.3753 32.5967V26.1536C71.3181 22.7066 68.8357 19.9297 66.131 19.9297H46.792V57.9886H56.8678V42.171H59.4074C60.6772 42.171 61.1788 42.7702 61.1788 44.149V57.9886H71.3753V44.8899C71.3753 41.5267 68.7023 38.9817 66.2961 38.6982ZM61.1344 33.7564C61.1724 34.9032 60.6963 35.5862 59.8646 35.6893H56.8551V26.0248H59.3947C60.6645 26.0248 61.1851 26.6691 61.1661 27.9577L61.1344 33.7564Z" fill="black"/>
</svg>
