<svg width="28" height="28" viewBox="0 0 28 28" fill="none" xmlns="http://www.w3.org/2000/svg">
<path d="M20.125 14H16.625C16.1417 14 15.75 14.3917 15.75 14.875V21.875C15.75 22.3583 16.1417 22.75 16.625 22.75H20.125C21.0915 22.75 21.875 21.9665 21.875 21V15.75C21.875 14.7835 21.0915 14 20.125 14ZM20.125 21H17.5V15.75H20.125V21Z" fill="white"/>
<path d="M28 15.75V14H23.625C23.1417 14 22.75 14.3917 22.75 14.875V22.75H24.5V19.25H28V17.5H24.5V15.75H28Z" fill="white"/>
<path d="M1.75 25.375V2.62501C1.75 2.14174 2.14173 1.75001 2.625 1.75001H15.75V5.25001C15.75 6.2165 16.5335 7.00001 17.5 7.00001H21V9.62501H22.75V6.12501C22.7514 5.89243 22.66 5.66886 22.4963 5.50376L17.2463 0.253764C17.0811 0.0899748 16.8576 -0.00129854 16.625 1.39617e-05H2.625C1.17523 1.39617e-05 0 1.1753 0 2.62501V25.375C0 26.8248 1.17523 28 2.625 28H8.75V26.25H2.625C2.14178 26.25 1.75 25.8583 1.75 25.375Z" fill="white"/>
<path d="M13.125 14H9.625C9.14173 14 8.75 14.3917 8.75 14.875V22.75H10.5V20.125H13.125C14.0915 20.125 14.875 19.3415 14.875 18.375V15.75C14.875 14.7835 14.0915 14 13.125 14ZM13.125 18.375H10.5V15.75H13.125V18.375Z" fill="white"/>
</svg>
