<svg width="21" height="24" viewBox="0 0 21 24" fill="none" xmlns="http://www.w3.org/2000/svg">
<path d="M5.06228 14.0665H4.06104V15.5099H5.06228C5.46428 15.5099 5.78228 15.1677 5.78228 14.8081C5.78153 14.4029 5.46428 14.0665 5.06228 14.0665Z" fill="#EBDE0C"/>
<path d="M9.09242 14.0955H8.09717V16.6924H9.09242C10.7117 16.6924 10.7829 14.0955 9.09242 14.0955Z" fill="#EBDE0C"/>
<path d="M17.25 10.875H0.75C0.3375 10.875 0 11.2013 0 11.6V18.85C0 19.2488 0.3375 19.575 0.75 19.575H17.25C17.6632 19.575 18 19.2488 18 18.85V11.6C18 11.2013 17.6632 10.875 17.25 10.875ZM5.0625 16.2349H4.06125V17.0005C4.06125 17.2557 3.89325 17.4 3.67725 17.4C3.47925 17.4 3.27 17.2557 3.27 16.9998V13.7366C3.27 13.5452 3.426 13.3356 3.67725 13.3356H5.0625C5.8425 13.3356 6.5445 13.8402 6.5445 14.8081C6.54375 15.7245 5.8425 16.2349 5.0625 16.2349ZM9.14625 17.4H7.719C7.521 17.4 7.305 17.2949 7.305 17.0404V13.7482C7.305 13.5394 7.521 13.3886 7.719 13.3886H9.09225C11.8328 13.3886 11.7727 17.4 9.14625 17.4ZM14.49 14.1419H12.744V15.0633H14.2733C14.49 15.0633 14.7052 15.2721 14.7052 15.4751C14.7052 15.6665 14.49 15.8224 14.2733 15.8224H12.744V17.0397C12.744 17.2427 12.5948 17.3993 12.3848 17.3993C12.1208 17.3993 11.9587 17.2427 11.9587 17.0397V13.7475C11.9587 13.5387 12.1215 13.3879 12.3848 13.3879H14.49C14.754 13.3879 14.9093 13.5387 14.9093 13.7475C14.9093 13.9338 14.754 14.1419 14.49 14.1419Z" fill="#EBDE0C"/>
<path d="M20.25 5.49985L15.3105 0.725C14.877 0.3045 14.115 0 13.5 0H5.25C4.0095 0 3 0.97585 3 2.175V9.425C3 9.82592 3.33525 10.15 3.75 10.15C4.16475 10.15 4.5 9.82592 4.5 9.425V2.175C4.5 1.77552 4.836 1.45 5.25 1.45H12C12.8287 1.45 13.5 2.0996 13.5 2.9V5.61875C13.5 6.5163 14.2605 7.25 15.1875 7.25H18C18.8287 7.25 19.5 7.8996 19.5 8.7V21.025C19.5 21.4245 19.1647 21.75 18.75 21.75H5.25C4.836 21.75 4.5 21.4245 4.5 21.025C4.5 20.6241 4.16475 20.3 3.75 20.3C3.33525 20.3 3 20.6241 3 21.025C3 22.2241 4.0095 23.2 5.25 23.2H18.75C19.9905 23.2 21 22.2241 21 21.025V7.25C21 6.65622 20.685 5.91962 20.25 5.49985Z" fill="#EBDE0C"/>
</svg>
