<svg width="10" height="13" viewBox="0 0 10 13" fill="none" xmlns="http://www.w3.org/2000/svg">
<path fill-rule="evenodd" clip-rule="evenodd" d="M2.36576 4.29803C2.28132 4.00434 2.35689 3.72477 2.56257 3.8488C2.89935 3.89199 3.32237 3.76666 3.5614 3.37556L2.51838 0.383955C2.06874 0.0548741 1.78075 0.028898 1.09684 0.506204L0.147621 1.81003C-0.272447 5.45802 4.11847 11.6554 7.73104 12.5129L9.29549 12.0773C9.98318 11.6055 10.0569 11.3292 9.89791 10.799L7.40987 8.80728C6.95629 8.89543 6.69245 9.24546 6.61836 9.57292C6.666 9.80638 6.37424 9.78089 6.12387 9.60198C4.57946 8.53356 2.85351 6.09767 2.36576 4.29803L2.36576 4.29803Z" fill="#EEFFDE"/>
</svg>
