<svg width="15" height="14" viewBox="0 0 15 14" fill="none" xmlns="http://www.w3.org/2000/svg">
<path d="M11.8559 13.5867C11.7408 13.5867 11.6266 13.5527 11.5286 13.4862L7.82554 10.9744L5.83945 12.4035C5.68368 12.5155 5.48291 12.5437 5.30204 12.479C5.1214 12.4142 4.98421 12.2646 4.93525 12.0791L3.938 8.29978L0.374738 6.9373C0.150416 6.85149 0.00164584 6.63688 1.3564e-05 6.3967C-0.00161871 6.15652 0.144198 5.9399 0.367432 5.85105L13.9163 0.459871C13.9778 0.433754 14.0428 0.418675 14.1084 0.414633C14.1319 0.413234 14.1554 0.413234 14.1788 0.414556C14.3147 0.422639 14.4482 0.477981 14.5523 0.580115C14.5631 0.590686 14.5734 0.601491 14.5831 0.612761C14.6694 0.71132 14.7168 0.831486 14.7257 0.953907C14.7279 0.984687 14.7277 1.01586 14.725 1.04702C14.7232 1.06925 14.72 1.09141 14.7155 1.1134L12.4285 13.1129C12.3917 13.3057 12.2605 13.467 12.0793 13.5422C12.0074 13.572 11.9314 13.5867 11.8559 13.5867ZM8.15068 9.78609L11.4492 12.0235L13.2287 2.68653L6.80164 8.871L8.13513 9.7756C8.1405 9.77894 8.14563 9.78251 8.15068 9.78609ZM5.4048 9.28856L5.84645 10.962L6.79799 10.2773L5.55201 9.43212C5.49411 9.39294 5.44452 9.34413 5.4048 9.28856ZM2.18696 6.38186L4.63366 7.31731C4.80894 7.38431 4.94123 7.53168 4.98911 7.7131L5.2994 8.88904C5.31362 8.7534 5.37511 8.62577 5.47499 8.52962L11.5991 2.63679L2.18696 6.38186Z" fill="#CDECFF"/>
</svg>
