<svg width="15" height="15" viewBox="0 0 15 15" fill="none" xmlns="http://www.w3.org/2000/svg">
<path fill-rule="evenodd" clip-rule="evenodd" d="M8.1838 8.43434C8.1838 8.43434 8.44582 8.45766 8.58634 8.28277L8.86125 7.93729C8.9938 7.76547 9.31412 7.65625 9.62768 7.83052C10.0425 8.06493 10.5788 8.43311 10.9464 8.77613C11.1489 8.94672 11.1961 9.19832 11.0581 9.46402L11.0568 9.46954C10.9145 9.71991 10.7249 9.95493 10.4849 10.174L10.4794 10.1777C10.2094 10.4029 9.89891 10.5336 9.56693 10.4256L9.5608 10.417C8.96434 10.2482 7.53334 9.51863 6.62148 8.79147C5.12973 7.61452 4.06937 5.67297 3.77605 4.63225L3.76684 4.62611C3.65884 4.29291 3.79078 3.98241 4.01475 3.71302L4.01905 3.70811C4.23812 3.46818 4.47253 3.27795 4.7235 3.1362L4.72903 3.13497C4.99412 2.99691 5.24571 3.04354 5.41691 3.24665C5.64212 3.47922 6.06491 4.03886 6.36191 4.56536C6.53619 4.87831 6.42696 5.19925 6.25575 5.33118L5.90966 5.60609C5.73539 5.74722 5.75809 6.00925 5.75809 6.00925C5.75809 6.00925 6.26987 7.94588 8.1838 8.43434ZM11.1949 6.82906C11.0924 6.82906 11.009 6.74622 11.0084 6.64375C10.9998 5.52079 10.6623 4.62611 10.0057 3.98547C9.34787 3.34422 8.51639 3.01531 7.53457 3.00856C7.43148 3.00795 7.34864 2.92388 7.34987 2.82079C7.35048 2.71831 7.43332 2.63609 7.5358 2.63609H7.53703C8.61825 2.64345 9.53625 3.00795 10.2659 3.71854C10.9961 4.43159 11.3716 5.41525 11.3808 6.64129C11.3815 6.74377 11.2992 6.82784 11.1961 6.82906H11.1949ZM10.2162 6.44616H10.2119C10.1088 6.4437 10.0272 6.35841 10.0296 6.25593C10.0443 5.61897 9.86209 5.10352 9.47366 4.6795C9.08707 4.2567 8.55628 4.02597 7.85059 3.97443C7.74812 3.96645 7.6708 3.87747 7.67816 3.775C7.68614 3.67252 7.77512 3.5952 7.87759 3.60256C8.67164 3.66086 9.30123 3.93884 9.74857 4.42791C10.1984 4.91881 10.4187 5.53675 10.4021 6.26391C10.3996 6.36516 10.3168 6.44616 10.2162 6.44616ZM9.26012 6.12584C9.16132 6.12584 9.07909 6.04852 9.07419 5.9485C9.04289 5.31645 8.74466 5.00718 8.13716 4.97404C8.03407 4.96852 7.95553 4.88077 7.96105 4.77829C7.96657 4.6752 8.05371 4.59666 8.1568 4.60218C8.95943 4.64513 9.40493 5.10475 9.44605 5.93009C9.45157 6.03256 9.37241 6.12032 9.26932 6.12522L9.26012 6.12584ZM13.4433 8.25454C13.072 11.2472 10.8832 11.4362 10.4794 11.5657C10.3076 11.621 8.71091 12.018 6.70432 11.8873C6.70432 11.8873 5.20828 13.6914 4.7413 14.1608C4.66828 14.2338 4.58298 14.2633 4.5253 14.2498C4.44491 14.2301 4.42282 14.1344 4.42405 13.9957L4.43632 11.5314V11.5307C1.51418 10.7189 1.68416 7.66791 1.7173 6.07061C1.75043 4.47331 2.0505 3.16443 2.94212 2.28447C4.54371 0.833837 7.84323 1.05045 7.84323 1.05045C10.6298 1.06272 11.965 1.90156 12.2749 2.18261C13.3028 3.06256 13.8262 5.16918 13.4433 8.25454ZM13.0432 1.4352C12.6768 1.09893 11.198 0.025064 7.90398 0.0103367C7.90398 0.0103367 4.01966 -0.224072 2.12598 1.51375C1.07175 2.56797 0.701117 4.11004 0.661844 6.02275C0.623185 7.93606 0.572253 11.5197 4.02703 12.4917L4.03071 12.4929L4.02825 13.9755C4.02825 13.9755 4.00678 14.5762 4.40196 14.699C4.87998 14.8468 5.16041 14.3909 5.61757 13.8988C5.86794 13.6288 6.21341 13.2324 6.47482 12.9292C8.83794 13.1268 10.6549 12.6733 10.8617 12.6065C11.3385 12.4512 14.0385 12.1057 14.4779 8.52147C14.9307 4.82616 14.2582 2.48943 13.0432 1.4352Z" fill="#F3D6FB"/>
</svg>
