<svg width="19" height="12" viewBox="0 0 19 12" fill="none" xmlns="http://www.w3.org/2000/svg">
<path d="M18.0533 11.7375H15.4857C15.18 11.7375 14.8744 11.5541 14.691 11.3095L14.4465 10.9122C14.2936 10.7288 12.8876 9.10876 12.0317 8.58914C11.6955 8.40574 11.5732 8.4363 11.5732 8.4363C11.5732 8.4363 11.5427 8.528 11.5427 8.55857V10.1786C11.5427 11.0344 10.8396 11.7069 10.0143 11.7069H9.40301C9.25018 11.7069 5.82675 11.6458 3.10635 7.58045C0.966705 4.40155 0.263679 2.32304 0.0191486 1.13095C-0.041984 0.855857 0.049715 0.58076 0.202547 0.366796C0.385944 0.152832 0.630475 0.0305664 0.905572 0.0305664H3.07578C3.47314 0.0305664 3.80937 0.275097 3.93164 0.672459C4.17617 1.37548 4.78749 3.1789 5.52109 4.34042C6.59091 6.11326 7.01884 6.2661 7.1411 6.2661C7.2328 6.11326 7.20223 5.50194 7.20223 5.10458C7.20223 4.92118 7.20223 4.76835 7.20223 4.58495C7.20223 4.46268 7.20223 4.30985 7.20223 4.15702C7.20223 3.39286 7.2328 2.35361 6.92714 1.86455L6.31581 0.978122C6.19355 0.794724 6.16298 0.550194 6.28524 0.33623C6.37694 0.122265 6.59091 0 6.83544 0H10.32C10.8396 0 11.237 0.427928 11.237 0.91699V5.31854C11.237 5.34911 11.2676 5.37967 11.2676 5.37967C11.2676 5.37967 11.3898 5.37967 11.726 5.07401C12.4291 4.37098 13.3155 3.05663 14.2019 1.25322L14.5076 0.550194C14.6604 0.213964 14.9966 0 15.3634 0H17.6253C17.931 0 18.2061 0.152832 18.3895 0.397362C18.5729 0.641893 18.6035 0.978122 18.4812 1.25322L18.2367 1.89511V1.92568C18.2061 1.98681 17.3808 3.60683 16.525 4.79891C15.8525 5.7159 15.5774 6.14383 15.6385 6.29666C15.6997 6.38836 16.097 6.84686 16.4944 7.21365C17.228 7.97781 18.145 8.95593 18.4812 9.59782C18.634 9.87292 18.7869 10.1175 18.8786 10.3314C19.0314 10.6065 19.0314 10.9427 18.848 11.2484C18.6646 11.5846 18.3895 11.7375 18.0533 11.7375ZM11.6343 7.82498C11.8483 7.82498 12.0928 7.91668 12.3679 8.06951C13.3766 8.65027 14.9049 10.4537 14.9661 10.5454L14.9966 10.5759L15.2412 10.9733C15.3023 11.065 15.394 11.1261 15.5163 11.1261H18.0533C18.2061 11.1261 18.2978 11.0344 18.3284 10.9733C18.3589 10.9427 18.4201 10.8205 18.3284 10.6676C18.2061 10.4537 18.0838 10.2092 17.931 9.93405C17.6253 9.38386 16.7084 8.40574 16.0359 7.67215C15.3634 6.93855 15.1189 6.69402 15.0578 6.54119C14.8744 6.0827 15.1495 5.7159 16.0359 4.49325C16.8306 3.39286 17.5948 1.89511 17.6865 1.71171L17.931 1.06982C17.9616 0.978123 17.9616 0.855857 17.9004 0.794724C17.8393 0.703025 17.7476 0.672459 17.6559 0.672459H15.394C15.2717 0.672459 15.1495 0.733592 15.1189 0.855857L14.8132 1.58945C14.1408 2.9038 13.1627 4.64608 12.2151 5.59364C11.8177 5.991 11.451 6.11326 11.1453 6.02157C10.7785 5.8993 10.6868 5.50194 10.6868 5.47137C10.6868 5.44081 10.6868 5.4408 10.6868 5.41024V0.978122C10.6868 0.794724 10.534 0.672459 10.3811 0.672459H6.83544L7.44676 1.55888C7.84413 2.20077 7.84413 3.33173 7.81356 4.21815C7.81356 4.37098 7.81356 4.49325 7.81356 4.61551C7.81356 4.76835 7.81356 4.95174 7.81356 5.10458C7.84413 5.96043 7.84413 6.75516 7.29393 6.87742C6.68261 6.99969 6.04071 6.35779 5.00146 4.67665C4.29843 3.48456 3.68711 1.80341 3.38144 0.886423C3.35088 0.764158 3.22861 0.672459 3.07578 0.672459H0.936138C0.844439 0.672459 0.75274 0.703025 0.691608 0.794724C0.630475 0.855857 0.630475 0.947556 0.630475 1.03926C0.844439 2.17021 1.54746 4.15702 3.62597 7.27478C6.16298 11.065 9.37244 11.1261 9.40301 11.1261H10.0143C10.534 11.1261 10.9313 10.6982 10.9313 10.2092V8.58914C10.9313 8.55857 10.9313 8.13064 11.2676 7.91668C11.3898 7.85554 11.5121 7.82498 11.6343 7.82498Z" fill="#B6E3FF"/>
</svg>
