<svg width="15" height="15" viewBox="0 0 15 15" fill="none" xmlns="http://www.w3.org/2000/svg">
<path fill-rule="evenodd" clip-rule="evenodd" d="M12.5816 2.1402C11.1973 0.760811 9.35622 0.000775304 7.3948 0C3.35333 0 0.0640737 3.27353 0.0624563 7.29724C0.0619172 8.58343 0.399567 9.83894 1.04118 10.9456L0.000976562 14.7273L3.88796 13.7125C4.95889 14.2938 6.16469 14.6002 7.39186 14.6007H7.39488C11.4359 14.6007 14.7255 11.3268 14.7271 7.30306C14.7279 5.35311 13.9659 3.51958 12.5816 2.1402ZM7.39488 13.3682H7.39238C6.29885 13.3678 5.22626 13.0754 4.29058 12.5227L4.06802 12.3913L1.76147 12.9935L2.37714 10.7552L2.23222 10.5257C1.62217 9.55997 1.29996 8.44375 1.30044 7.2977C1.30178 3.95335 4.0357 1.23253 7.3973 1.23253C9.02506 1.23315 10.5552 1.8649 11.7059 3.0114C12.8565 4.15789 13.4898 5.68186 13.4892 7.30259C13.4878 10.6472 10.7539 13.3682 7.39488 13.3682ZM10.7377 8.82542C10.5545 8.73415 9.65378 8.29301 9.48583 8.23215C9.3179 8.1713 9.19578 8.14089 9.07362 8.32344C8.9515 8.50598 8.60039 8.91671 8.49349 9.03839C8.38664 9.16009 8.27978 9.17532 8.09656 9.08403C7.91335 8.99277 7.32304 8.80023 6.62324 8.179C6.07863 7.69553 5.71091 7.09834 5.60404 6.91581C5.49717 6.73325 5.59268 6.63455 5.68439 6.54366C5.76679 6.46196 5.86759 6.33069 5.9592 6.2242C6.05079 6.11772 6.08132 6.04166 6.14238 5.91998C6.20346 5.79828 6.17293 5.69178 6.12713 5.60052C6.08132 5.50925 5.71494 4.61172 5.56225 4.24664C5.41355 3.89107 5.2625 3.93918 5.15004 3.93361C5.04329 3.92832 4.92103 3.92719 4.79891 3.92719C4.67677 3.92719 4.4783 3.97283 4.31035 4.15537C4.14242 4.33792 3.66915 4.77907 3.66915 5.67657C3.66915 6.57408 4.32562 7.44115 4.41724 7.56285C4.50883 7.68455 5.70911 9.52637 7.54695 10.3162C7.98406 10.5041 8.32532 10.6163 8.59139 10.7003C9.03029 10.8391 9.42968 10.8195 9.74537 10.7726C10.0974 10.7202 10.8293 10.3314 10.982 9.9055C11.1347 9.47956 11.1347 9.11447 11.0889 9.03841C11.0431 8.96235 10.9209 8.91671 10.7377 8.82542Z" fill="#D3FFDE"/>
</svg>
